%TF.GenerationSoftware,KiCad,Pcbnew,10.0.3*%
%TF.CreationDate,2026-06-11T17:52:50+01:00*%
%TF.ProjectId,ASTRA,41535452-412e-46b6-9963-61645f706362,3*%
%TF.SameCoordinates,Original*%
%TF.FileFunction,Copper,L1,Top*%
%TF.FilePolarity,Positive*%
%FSLAX46Y46*%
G04 Gerber Fmt 4.6, Leading zero omitted, Abs format (unit mm)*
G04 Created by KiCad (PCBNEW 10.0.3) date 2026-06-11 17:52:50*
%MOMM*%
%LPD*%
G01*
G04 APERTURE LIST*
G04 Aperture macros list*
%AMRoundRect*
0 Rectangle with rounded corners*
0 $1 Rounding radius*
0 $2 $3 $4 $5 $6 $7 $8 $9 X,Y pos of 4 corners*
0 Add a 4 corners polygon primitive as box body*
4,1,4,$2,$3,$4,$5,$6,$7,$8,$9,$2,$3,0*
0 Add four circle primitives for the rounded corners*
1,1,$1+$1,$2,$3*
1,1,$1+$1,$4,$5*
1,1,$1+$1,$6,$7*
1,1,$1+$1,$8,$9*
0 Add four rect primitives between the rounded corners*
20,1,$1+$1,$2,$3,$4,$5,0*
20,1,$1+$1,$4,$5,$6,$7,0*
20,1,$1+$1,$6,$7,$8,$9,0*
20,1,$1+$1,$8,$9,$2,$3,0*%
G04 Aperture macros list end*
%TA.AperFunction,ComponentPad*%
%ADD10C,1.508000*%
%TD*%
%TA.AperFunction,ComponentPad*%
%ADD11R,1.508000X1.508000*%
%TD*%
%TA.AperFunction,ComponentPad*%
%ADD12C,1.600000*%
%TD*%
%TA.AperFunction,ComponentPad*%
%ADD13C,1.700000*%
%TD*%
%TA.AperFunction,ComponentPad*%
%ADD14R,1.700000X1.700000*%
%TD*%
%TA.AperFunction,ComponentPad*%
%ADD15C,1.500000*%
%TD*%
%TA.AperFunction,ComponentPad*%
%ADD16R,1.500000X1.500000*%
%TD*%
%TA.AperFunction,ComponentPad*%
%ADD17RoundRect,0.250000X-0.550000X-0.550000X0.550000X-0.550000X0.550000X0.550000X-0.550000X0.550000X0*%
%TD*%
%TA.AperFunction,ComponentPad*%
%ADD18C,1.800000*%
%TD*%
%TA.AperFunction,ComponentPad*%
%ADD19R,1.800000X1.800000*%
%TD*%
%TA.AperFunction,ComponentPad*%
%ADD20RoundRect,0.250000X-0.550000X0.550000X-0.550000X-0.550000X0.550000X-0.550000X0.550000X0.550000X0*%
%TD*%
%TA.AperFunction,ComponentPad*%
%ADD21C,1.905000*%
%TD*%
%TA.AperFunction,ViaPad*%
%ADD22C,0.600000*%
%TD*%
%TA.AperFunction,Conductor*%
%ADD23C,0.200000*%
%TD*%
G04 APERTURE END LIST*
D10*
%TO.P,T2,18,DIAG_18*%
%TO.N,/T2_DIAG*%
X75112500Y-120948151D03*
%TO.P,T2,17,INDEX_17*%
%TO.N,unconnected-(T2-INDEX-Pad17)*%
X75112500Y-118408151D03*
%TO.P,T2,16,~{EN}_16*%
%TO.N,/1EN*%
X75112500Y-123488151D03*
%TO.P,T2,15,MS1_15*%
%TO.N,unconnected-(T2-MS1-Pad15)*%
X77652500Y-123488151D03*
%TO.P,T2,14,MS2_14*%
%TO.N,unconnected-(T2-MS2-Pad14)*%
X80192500Y-123488151D03*
%TO.P,T2,13,SPRD_13*%
%TO.N,unconnected-(T2-SPRD-Pad13)*%
X82732500Y-123488151D03*
%TO.P,T2,12,UART_12*%
%TO.N,/1UART*%
X85272500Y-123488151D03*
%TO.P,T2,11,PDN_11*%
%TO.N,/1PDN*%
X87812500Y-123488151D03*
%TO.P,T2,10,STEP_10*%
%TO.N,/1STEP*%
X90352500Y-123488151D03*
%TO.P,T2,9,DIR_9*%
%TO.N,/1DIR*%
X92892500Y-123488151D03*
%TO.P,T2,8,VM_8*%
%TO.N,+12V*%
X75112500Y-110788151D03*
%TO.P,T2,7,GND_7*%
%TO.N,GND*%
X77652500Y-110788151D03*
%TO.P,T2,6,M2B_6*%
%TO.N,Net-(T2-M2B)*%
X80192500Y-110788151D03*
%TO.P,T2,5,M2A_5*%
%TO.N,Net-(T2-M2A)*%
X82732500Y-110788151D03*
%TO.P,T2,4,M1A_4*%
%TO.N,Net-(T2-M1A)*%
X85272500Y-110788151D03*
%TO.P,T2,3,M1B_3*%
%TO.N,Net-(T2-M1B)*%
X87812500Y-110788151D03*
%TO.P,T2,2,VIO_2*%
%TO.N,+3.3V*%
X90352500Y-110788151D03*
D11*
%TO.P,T2,1,GND_1*%
%TO.N,GND*%
X92892500Y-110788151D03*
%TD*%
D12*
%TO.P,R2,2*%
%TO.N,Net-(U1-GPB1)*%
X111512500Y-112108151D03*
%TO.P,R2,1*%
%TO.N,Net-(D2-A)*%
X114052500Y-112108151D03*
%TD*%
D13*
%TO.P,B1,4,Pin_4_4*%
%TO.N,GND*%
X101602500Y-119098151D03*
%TO.P,B1,3,Pin_3_3*%
%TO.N,+5V*%
X101602500Y-116558151D03*
%TO.P,B1,2,Pin_2_2*%
%TO.N,GND*%
X101602500Y-114018151D03*
D14*
%TO.P,B1,1,Pin_1_1*%
%TO.N,+12V*%
X101602500Y-111478151D03*
%TD*%
D15*
%TO.P,J2,8*%
%TO.N,Net-(T2-M2B)*%
X90588672Y-80368237D03*
%TO.P,J2,7*%
X88048672Y-79098237D03*
%TO.P,J2,6*%
%TO.N,Net-(T2-M2A)*%
X90588672Y-77828237D03*
%TO.P,J2,5*%
X88048672Y-76558237D03*
%TO.P,J2,4*%
%TO.N,Net-(T2-M1A)*%
X90588672Y-75288237D03*
%TO.P,J2,3*%
X88048672Y-74018237D03*
%TO.P,J2,2*%
%TO.N,Net-(T2-M1B)*%
X90588672Y-72748237D03*
D16*
%TO.P,J2,1*%
X88048672Y-71478237D03*
%TD*%
D12*
%TO.P,C2,2*%
%TO.N,GND*%
X77652500Y-107888151D03*
%TO.P,C2,1*%
%TO.N,+12V*%
X75152500Y-107888151D03*
%TD*%
D15*
%TO.P,J3,8*%
%TO.N,unconnected-(J3-Pad8)*%
X90542500Y-137708151D03*
%TO.P,J3,7*%
%TO.N,unconnected-(J3-Pad7)*%
X88002500Y-136438151D03*
%TO.P,J3,6*%
%TO.N,+3.3V*%
X90542500Y-135168151D03*
%TO.P,J3,5*%
%TO.N,GND*%
X88002500Y-133898151D03*
%TO.P,J3,4*%
%TO.N,/SDA*%
X90542500Y-132628151D03*
%TO.P,J3,3*%
%TO.N,GND*%
X88002500Y-131358151D03*
%TO.P,J3,2*%
%TO.N,/SCL*%
X90542500Y-130088151D03*
D16*
%TO.P,J3,1*%
%TO.N,GND*%
X88002500Y-128818151D03*
%TD*%
D11*
%TO.P,T1,1,GND_1*%
%TO.N,GND*%
X92922500Y-92288151D03*
D10*
%TO.P,T1,2,VIO_2*%
%TO.N,+3.3V*%
X90382500Y-92288151D03*
%TO.P,T1,3,M1B_3*%
%TO.N,Net-(T1-M1B)*%
X87842500Y-92288151D03*
%TO.P,T1,4,M1A_4*%
%TO.N,Net-(T1-M1A)*%
X85302500Y-92288151D03*
%TO.P,T1,5,M2A_5*%
%TO.N,Net-(T1-M2A)*%
X82762500Y-92288151D03*
%TO.P,T1,6,M2B_6*%
%TO.N,Net-(T1-M2B)*%
X80222500Y-92288151D03*
%TO.P,T1,7,GND_7*%
%TO.N,GND*%
X77682500Y-92288151D03*
%TO.P,T1,8,VM_8*%
%TO.N,+12V*%
X75142500Y-92288151D03*
%TO.P,T1,9,DIR_9*%
%TO.N,/2DIR*%
X92922500Y-104988151D03*
%TO.P,T1,10,STEP_10*%
%TO.N,/2STEP*%
X90382500Y-104988151D03*
%TO.P,T1,11,PDN_11*%
%TO.N,/2PDN*%
X87842500Y-104988151D03*
%TO.P,T1,12,UART_12*%
%TO.N,/2UART*%
X85302500Y-104988151D03*
%TO.P,T1,13,SPRD_13*%
%TO.N,unconnected-(T1-SPRD-Pad13)*%
X82762500Y-104988151D03*
%TO.P,T1,14,MS2_14*%
%TO.N,unconnected-(T1-MS2-Pad14)*%
X80222500Y-104988151D03*
%TO.P,T1,15,MS1_15*%
%TO.N,unconnected-(T1-MS1-Pad15)*%
X77682500Y-104988151D03*
%TO.P,T1,16,~{EN}_16*%
%TO.N,/2EN*%
X75142500Y-104988151D03*
%TO.P,T1,17,INDEX_17*%
%TO.N,unconnected-(T1-INDEX-Pad17)*%
X75142500Y-99908151D03*
%TO.P,T1,18,DIAG_18*%
%TO.N,/T1_DIAG*%
X75142500Y-102448151D03*
%TD*%
D13*
%TO.P,P1,3*%
%TO.N,N/C*%
X98052500Y-109028151D03*
%TO.P,P1,2*%
%TO.N,+12V*%
X98052500Y-111568151D03*
D14*
%TO.P,P1,1*%
%TO.N,GND*%
X98052500Y-114108151D03*
%TD*%
D12*
%TO.P,C1,2*%
%TO.N,GND*%
X100702500Y-127238151D03*
D17*
%TO.P,C1,1*%
%TO.N,+12V*%
X95702500Y-127238151D03*
%TD*%
D14*
%TO.P,SW3,1,1_1*%
%TO.N,Net-(U1-GPA3)*%
X108652500Y-112438151D03*
D13*
%TO.P,SW3,2,2_2*%
%TO.N,GND*%
X106112500Y-112438151D03*
%TD*%
D12*
%TO.P,R4,2*%
%TO.N,Net-(U1-GPB3)*%
X111502500Y-118208151D03*
%TO.P,R4,1*%
%TO.N,Net-(D4-A)*%
X114042500Y-118208151D03*
%TD*%
D13*
%TO.P,S1,8,Pin_8_8*%
%TO.N,/BL*%
X98252500Y-92228151D03*
%TO.P,S1,7,Pin_7_7*%
%TO.N,GND*%
X98252500Y-89688151D03*
%TO.P,S1,6,Pin_6_6*%
%TO.N,/DC*%
X98252500Y-87148151D03*
%TO.P,S1,5,Pin_5_5*%
%TO.N,/RES*%
X98252500Y-84608151D03*
%TO.P,S1,4,Pin_4_4*%
%TO.N,/MOSI*%
X98252500Y-82068151D03*
%TO.P,S1,3,Pin_3_3*%
%TO.N,/SCK*%
X98252500Y-79528151D03*
%TO.P,S1,2,Pin_2_2*%
%TO.N,+3.3V*%
X98252500Y-76988151D03*
D14*
%TO.P,S1,1,Pin_1_1*%
%TO.N,GND*%
X98252500Y-74448151D03*
%TD*%
D15*
%TO.P,J1,8*%
%TO.N,Net-(T1-M2B)*%
X90588672Y-63986190D03*
%TO.P,J1,7*%
X88048672Y-62716190D03*
%TO.P,J1,6*%
%TO.N,Net-(T1-M2A)*%
X90588672Y-61446190D03*
%TO.P,J1,5*%
X88048672Y-60176190D03*
%TO.P,J1,4*%
%TO.N,Net-(T1-M1A)*%
X90588672Y-58906190D03*
%TO.P,J1,3*%
X88048672Y-57636190D03*
%TO.P,J1,2*%
%TO.N,Net-(T1-M1B)*%
X90588672Y-56366190D03*
D16*
%TO.P,J1,1*%
X88048672Y-55096190D03*
%TD*%
D18*
%TO.P,D2,2,A_2*%
%TO.N,Net-(D2-A)*%
X120062500Y-117918151D03*
D19*
%TO.P,D2,1,K_1*%
%TO.N,GND*%
X117522500Y-117918151D03*
%TD*%
D14*
%TO.P,SW6,1,1_1*%
%TO.N,Net-(U1-GPA0)*%
X108652500Y-123138151D03*
D13*
%TO.P,SW6,2,2_2*%
%TO.N,GND*%
X106112500Y-123138151D03*
%TD*%
D12*
%TO.P,C4,2*%
%TO.N,GND*%
X77652500Y-89438151D03*
%TO.P,C4,1*%
%TO.N,+12V*%
X75152500Y-89438151D03*
%TD*%
%TO.P,C6,2*%
%TO.N,GND*%
X104102500Y-130338151D03*
%TO.P,C6,1*%
%TO.N,+3.3V*%
X106602500Y-130338151D03*
%TD*%
D18*
%TO.P,D4,2,A_2*%
%TO.N,Net-(D4-A)*%
X126517500Y-114258151D03*
D19*
%TO.P,D4,1,K_1*%
%TO.N,GND*%
X123977500Y-114258151D03*
%TD*%
D13*
%TO.P,SW7,2,2_2*%
%TO.N,Net-(C7-Pad1)*%
X98102500Y-105348151D03*
D14*
%TO.P,SW7,1,1_1*%
%TO.N,GND*%
X98102500Y-102808151D03*
%TD*%
D18*
%TO.P,D1,2,A_2*%
%TO.N,Net-(D1-A)*%
X120062500Y-110448151D03*
D19*
%TO.P,D1,1,K_1*%
%TO.N,GND*%
X117522500Y-110448151D03*
%TD*%
D12*
%TO.P,C7,2*%
%TO.N,Net-(MC2-Pin_30)*%
X101702500Y-107208151D03*
%TO.P,C7,1*%
%TO.N,Net-(C7-Pad1)*%
X101702500Y-104708151D03*
%TD*%
%TO.P,R5,2*%
%TO.N,Net-(U1-GPB4)*%
X111502500Y-115208151D03*
%TO.P,R5,1*%
%TO.N,Net-(D5-A)*%
X114042500Y-115208151D03*
%TD*%
D13*
%TO.P,SW1,2,2_2*%
%TO.N,GND*%
X106112500Y-105338151D03*
D14*
%TO.P,SW1,1,1_1*%
%TO.N,Net-(U1-GPA5)*%
X108652500Y-105338151D03*
%TD*%
%TO.P,SW5,1,1_1*%
%TO.N,Net-(U1-GPA1)*%
X108647500Y-119553151D03*
D13*
%TO.P,SW5,2,2_2*%
%TO.N,GND*%
X106107500Y-119553151D03*
%TD*%
D14*
%TO.P,SW2,1,1_1*%
%TO.N,Net-(U1-GPA4)*%
X108652500Y-108888151D03*
D13*
%TO.P,SW2,2,2_2*%
%TO.N,GND*%
X106112500Y-108888151D03*
%TD*%
D12*
%TO.P,C3,2*%
%TO.N,GND*%
X92902500Y-107888151D03*
%TO.P,C3,1*%
%TO.N,+3.3V*%
X90402500Y-107888151D03*
%TD*%
%TO.P,U1,28,GPA7_28*%
%TO.N,unconnected-(U1-GPA7-Pad28)*%
X126982500Y-140358151D03*
%TO.P,U1,27,GPA6_27*%
%TO.N,unconnected-(U1-GPA6-Pad27)*%
X124442500Y-140358151D03*
%TO.P,U1,26,GPA5_26*%
%TO.N,Net-(U1-GPA5)*%
X121902500Y-140358151D03*
%TO.P,U1,25,GPA4_25*%
%TO.N,Net-(U1-GPA4)*%
X119362500Y-140358151D03*
%TO.P,U1,24,GPA3_24*%
%TO.N,Net-(U1-GPA3)*%
X116822500Y-140358151D03*
%TO.P,U1,23,GPA2_23*%
%TO.N,Net-(U1-GPA2)*%
X114282500Y-140358151D03*
%TO.P,U1,22,GPA1_22*%
%TO.N,Net-(U1-GPA1)*%
X111742500Y-140358151D03*
%TO.P,U1,21,GPA0_21*%
%TO.N,Net-(U1-GPA0)*%
X109202500Y-140358151D03*
%TO.P,U1,20,INTA_20*%
%TO.N,unconnected-(U1-INTA-Pad20)*%
X106662500Y-140358151D03*
%TO.P,U1,19,INTB_19*%
%TO.N,unconnected-(U1-INTB-Pad19)*%
X104122500Y-140358151D03*
%TO.P,U1,18,~{RESET}_18*%
%TO.N,unconnected-(U1-~{RESET}-Pad18)*%
X101582500Y-140358151D03*
%TO.P,U1,17,A2_17*%
%TO.N,GND*%
X99042500Y-140358151D03*
%TO.P,U1,16,A1_16*%
X96502500Y-140358151D03*
%TO.P,U1,15,A0_15*%
X93962500Y-140358151D03*
%TO.P,U1,14,NC_14*%
%TO.N,unconnected-(U1-NC-Pad14)*%
X93962500Y-132738151D03*
%TO.P,U1,13,SDA_13*%
%TO.N,/SDA*%
X96502500Y-132738151D03*
%TO.P,U1,12,SCK_12*%
%TO.N,/SCL*%
X99042500Y-132738151D03*
%TO.P,U1,11,NC_11*%
%TO.N,unconnected-(U1-NC-Pad11)*%
X101582500Y-132738151D03*
%TO.P,U1,10,V_{SS}_10*%
%TO.N,GND*%
X104122500Y-132738151D03*
%TO.P,U1,9,V_{DD}_9*%
%TO.N,+3.3V*%
X106662500Y-132738151D03*
%TO.P,U1,8,GPB7_8*%
%TO.N,unconnected-(U1-GPB7-Pad8)*%
X109202500Y-132738151D03*
%TO.P,U1,7,GPB6_7*%
%TO.N,unconnected-(U1-GPB6-Pad7)*%
X111742500Y-132738151D03*
%TO.P,U1,6,GPB5_6*%
%TO.N,unconnected-(U1-GPB5-Pad6)*%
X114282500Y-132738151D03*
%TO.P,U1,5,GPB4_5*%
%TO.N,Net-(U1-GPB4)*%
X116822500Y-132738151D03*
%TO.P,U1,4,GPB3_4*%
%TO.N,Net-(U1-GPB3)*%
X119362500Y-132738151D03*
%TO.P,U1,3,GPB2_3*%
%TO.N,Net-(U1-GPB2)*%
X121902500Y-132738151D03*
%TO.P,U1,2,GPB1_2*%
%TO.N,Net-(U1-GPB1)*%
X124442500Y-132738151D03*
D20*
%TO.P,U1,1,GPB0_1*%
%TO.N,Net-(U1-GPB0)*%
X126982500Y-132738151D03*
%TD*%
D14*
%TO.P,SW4,1,1_1*%
%TO.N,Net-(U1-GPA2)*%
X108652500Y-115988151D03*
D13*
%TO.P,SW4,2,2_2*%
%TO.N,GND*%
X106112500Y-115988151D03*
%TD*%
D18*
%TO.P,D5,2,A_2*%
%TO.N,Net-(D5-A)*%
X126517500Y-121728151D03*
D19*
%TO.P,D5,1,K_1*%
%TO.N,GND*%
X123977500Y-121728151D03*
%TD*%
D12*
%TO.P,R1,2*%
%TO.N,Net-(U1-GPB0)*%
X111507500Y-109058151D03*
%TO.P,R1,1*%
%TO.N,Net-(D1-A)*%
X114047500Y-109058151D03*
%TD*%
%TO.P,R3,2*%
%TO.N,Net-(U1-GPB2)*%
X111507500Y-106008151D03*
%TO.P,R3,1*%
%TO.N,Net-(D3-A)*%
X114047500Y-106008151D03*
%TD*%
%TO.P,C5,2*%
%TO.N,GND*%
X92902500Y-89438151D03*
%TO.P,C5,1*%
%TO.N,+3.3V*%
X90402500Y-89438151D03*
%TD*%
D18*
%TO.P,D3,2,A_2*%
%TO.N,Net-(D3-A)*%
X126517500Y-106788151D03*
D19*
%TO.P,D3,1,K_1*%
%TO.N,GND*%
X123977500Y-106788151D03*
%TD*%
D21*
%TO.P,MC2,1,Pin_1_1*%
%TO.N,+3.3V*%
X101852500Y-60408151D03*
%TO.P,MC2,2,Pin_3_2*%
%TO.N,GND*%
X101852500Y-62948151D03*
%TO.P,MC2,3,Pin_5_3*%
%TO.N,/2DIR*%
X101852500Y-65488151D03*
%TO.P,MC2,4,Pin_7_4*%
%TO.N,unconnected-(MC2-Pin_7-Pad4)*%
X101852500Y-68028151D03*
%TO.P,MC2,5,5_5*%
%TO.N,unconnected-(MC2-Pad5)*%
X101852500Y-70568151D03*
%TO.P,MC2,6,Pin_11_6*%
%TO.N,/2STEP*%
X101852500Y-73108151D03*
%TO.P,MC2,7,Pin_13_7*%
%TO.N,/2PDN*%
X101852500Y-75648151D03*
%TO.P,MC2,8,Pin_15_8*%
%TO.N,unconnected-(MC2-Pin_15-Pad8)*%
X101852500Y-78188151D03*
%TO.P,MC2,9,Pin_17_9*%
%TO.N,/2UART*%
X101852500Y-80728151D03*
%TO.P,MC2,10,Pin_19_10*%
%TO.N,/2EN*%
X101852500Y-83268151D03*
%TO.P,MC2,11,Pin_21_11*%
%TO.N,/1DIR*%
X101852500Y-85808151D03*
%TO.P,MC2,12,Pin_23_12*%
%TO.N,/1STEP*%
X101852500Y-88348151D03*
%TO.P,MC2,13,Pin_25_13*%
%TO.N,/1PDN*%
X101852500Y-90888151D03*
%TO.P,MC2,14,Pin_27_14*%
%TO.N,/1UART*%
X101852500Y-93428151D03*
%TO.P,MC2,15,Pin_29_15*%
%TO.N,/1EN*%
X101852500Y-95968151D03*
%TO.P,MC2,30,Pin_2_30*%
%TO.N,unconnected-(MC2-Pin_2-Pad30)*%
X126852500Y-60408151D03*
%TO.P,MC2,29,Pin_4_29*%
%TO.N,GND*%
X126852500Y-62948151D03*
%TO.P,MC2,28,Pin_6_28*%
%TO.N,/BL*%
X126852500Y-65488151D03*
%TO.P,MC2,27,Pin_8_27*%
%TO.N,unconnected-(MC2-Pin_8-Pad27)*%
X126852500Y-68028151D03*
%TO.P,MC2,26,Pin_10_26*%
%TO.N,/DC*%
X126852500Y-70568151D03*
%TO.P,MC2,25,Pin_12_25*%
%TO.N,/RES*%
X126852500Y-73108151D03*
%TO.P,MC2,24,Pin_14_24*%
%TO.N,/MOSI*%
X126852500Y-75648151D03*
%TO.P,MC2,23,Pin_16_23*%
%TO.N,/SCK*%
X126852500Y-78188151D03*
%TO.P,MC2,22,Pin_18_22*%
%TO.N,/SCL*%
X126852500Y-80728151D03*
%TO.P,MC2,21,Pin_20_21*%
%TO.N,/SDA*%
X126852500Y-83268151D03*
%TO.P,MC2,20,Pin_22_20*%
%TO.N,/T1_DIAG*%
X126852500Y-85808151D03*
%TO.P,MC2,19,Pin_24_19*%
%TO.N,/T2_DIAG*%
X126852500Y-88348151D03*
%TO.P,MC2,18,Pin_26_18*%
%TO.N,unconnected-(MC2-Pin_26-Pad18)*%
X126852500Y-90888151D03*
%TO.P,MC2,17,Pin_28_17*%
%TO.N,unconnected-(MC2-Pin_28-Pad17)*%
X126852500Y-93428151D03*
%TO.P,MC2,16,Pin_30_16*%
%TO.N,Net-(MC2-Pin_30)*%
X126852500Y-95968151D03*
%TD*%
D22*
%TO.N,GND*%
X92950000Y-94400000D03*
X98100000Y-96350000D03*
X123200000Y-62900000D03*
X91100000Y-112850000D03*
%TO.N,+3.3V*%
X86552500Y-122208151D03*
%TO.N,/SDA*%
X122252500Y-83955651D03*
%TO.N,/DC*%
X100702500Y-82058151D03*
%TO.N,/2PDN*%
X88498672Y-72852044D03*
X97652500Y-73098149D03*
%TO.N,+3.3V*%
X94752500Y-84808151D03*
X95452500Y-72458151D03*
%TO.N,/SCL*%
X121252500Y-83858151D03*
%TO.N,/MOSI*%
X120702500Y-80858151D03*
%TO.N,+12V*%
X77702500Y-121708151D03*
%TO.N,/RES*%
X100652500Y-79508151D03*
%TO.N,/SCK*%
X100702500Y-77058151D03*
X113152500Y-70708151D03*
%TO.N,/RES*%
X123352500Y-73108151D03*
%TD*%
%TO.N,GND*%
D23*
X96150000Y-94400000D02*
X92950000Y-94400000D01*
X98100000Y-96350000D02*
X96150000Y-94400000D01*
X101900651Y-62900000D02*
X123200000Y-62900000D01*
X101852500Y-62948151D02*
X101900651Y-62900000D01*
X79714349Y-112850000D02*
X91100000Y-112850000D01*
X77652500Y-110788151D02*
X79714349Y-112850000D01*
%TO.N,Net-(T1-M2B)*%
X89318672Y-62716190D02*
X90588672Y-63986190D01*
%TO.N,Net-(D1-A)*%
X120062500Y-109218151D02*
X120062500Y-110448151D01*
%TO.N,Net-(T1-M2A)*%
X88048672Y-60176190D02*
X89318672Y-60176190D01*
%TO.N,Net-(T1-M2B)*%
X88048672Y-62716190D02*
X89318672Y-62716190D01*
%TO.N,Net-(T1-M1A)*%
X88048672Y-57636190D02*
X89318672Y-57636190D01*
%TO.N,GND*%
X123977500Y-121728151D02*
X123977500Y-106788151D01*
%TO.N,Net-(D4-A)*%
X127332500Y-123328151D02*
X127952500Y-122708151D01*
X118931130Y-123328151D02*
X127332500Y-123328151D01*
X127952500Y-115693151D02*
X126517500Y-114258151D01*
%TO.N,Net-(T1-M1B)*%
X88048672Y-55096190D02*
X89318672Y-55096190D01*
%TO.N,Net-(D4-A)*%
X127952500Y-122708151D02*
X127952500Y-115693151D01*
%TO.N,Net-(D1-A)*%
X119002500Y-108158151D02*
X120062500Y-109218151D01*
%TO.N,Net-(U1-GPB4)*%
X116822500Y-132738151D02*
X116822500Y-129228151D01*
%TO.N,Net-(T1-M1A)*%
X89318672Y-57636190D02*
X90588672Y-58906190D01*
%TO.N,GND*%
X117522500Y-117918151D02*
X121332500Y-121728151D01*
%TO.N,Net-(T1-M1B)*%
X89318672Y-55096190D02*
X90588672Y-56366190D01*
%TO.N,GND*%
X88002500Y-133898151D02*
X88002500Y-128818151D01*
%TO.N,Net-(U1-GPB4)*%
X116822500Y-129228151D02*
X110402500Y-122808151D01*
%TO.N,Net-(T1-M2A)*%
X89318672Y-60176190D02*
X90588672Y-61446190D01*
%TO.N,GND*%
X117522500Y-110448151D02*
X117522500Y-117918151D01*
%TO.N,Net-(D3-A)*%
X126517500Y-105423151D02*
X126517500Y-106788151D01*
%TO.N,GND*%
X121332500Y-121728151D02*
X123977500Y-121728151D01*
%TO.N,Net-(T2-M1A)*%
X89318672Y-74018237D02*
X90588672Y-75288237D01*
%TO.N,Net-(T2-M2A)*%
X88048672Y-76558237D02*
X89318672Y-76558237D01*
%TO.N,Net-(T2-M2B)*%
X88048672Y-79098237D02*
X89318672Y-79098237D01*
%TO.N,Net-(D3-A)*%
X125452500Y-104358151D02*
X126517500Y-105423151D01*
%TO.N,Net-(T2-M2B)*%
X89318672Y-79098237D02*
X90588672Y-80368237D01*
%TO.N,Net-(T2-M1B)*%
X88048672Y-71478237D02*
X89318672Y-71478237D01*
%TO.N,Net-(T2-M2A)*%
X89318672Y-76558237D02*
X90588672Y-77828237D01*
%TO.N,Net-(T2-M1B)*%
X89318672Y-71478237D02*
X90588672Y-72748237D01*
%TO.N,Net-(U1-GPB3)*%
X119362500Y-132738151D02*
X119362500Y-125168151D01*
%TO.N,Net-(T2-M1A)*%
X88048672Y-74018237D02*
X89318672Y-74018237D01*
%TO.N,/SCL*%
X126852500Y-80728151D02*
X124382500Y-80728151D01*
%TO.N,/DC*%
X115412500Y-82008151D02*
X100752500Y-82008151D01*
X126852500Y-70568151D02*
X115412500Y-82008151D01*
X100752500Y-82008151D02*
X100702500Y-82058151D01*
%TO.N,+3.3V*%
X95452500Y-72458151D02*
X95452500Y-66808151D01*
X95452500Y-66808151D02*
X101852500Y-60408151D01*
%TO.N,/SCL*%
X99042500Y-132738151D02*
X97712500Y-131408151D01*
X97712500Y-131408151D02*
X91862500Y-131408151D01*
X91862500Y-131408151D02*
X90542500Y-130088151D01*
%TO.N,Net-(D5-A)*%
X115902500Y-117158151D02*
X114042500Y-115298151D01*
X126517500Y-121728151D02*
X125317500Y-122928151D01*
X125317500Y-122928151D02*
X119122500Y-122928151D01*
X115902500Y-119708151D02*
X115902500Y-117158151D01*
X119122500Y-122928151D02*
X115902500Y-119708151D01*
X114042500Y-115298151D02*
X114042500Y-115208151D01*
%TO.N,GND*%
X77682500Y-92288151D02*
X77682500Y-89468151D01*
X77682500Y-89468151D02*
X77652500Y-89438151D01*
%TO.N,+3.3V*%
X94752500Y-85088151D02*
X90402500Y-89438151D01*
X94752500Y-84808151D02*
X94752500Y-85088151D01*
%TO.N,GND*%
X96952500Y-88388151D02*
X98252500Y-89688151D01*
X98252500Y-74448151D02*
X96952500Y-75748151D01*
X96952500Y-75748151D02*
X96952500Y-88388151D01*
X99042500Y-140358151D02*
X99042500Y-137818151D01*
X99042500Y-137818151D02*
X104122500Y-132738151D01*
X98252500Y-74448151D02*
X98252500Y-66548151D01*
X98252500Y-66548151D02*
X101852500Y-62948151D01*
X98002500Y-89438151D02*
X98252500Y-89688151D01*
X92902500Y-89438151D02*
X98002500Y-89438151D01*
%TO.N,Net-(D1-A)*%
X114947500Y-108158151D02*
X119002500Y-108158151D01*
X114047500Y-109058151D02*
X114947500Y-108158151D01*
%TO.N,GND*%
X93962500Y-140358151D02*
X99042500Y-140358151D01*
%TO.N,Net-(D2-A)*%
X118802500Y-108858151D02*
X118802500Y-116658151D01*
X114052500Y-110976781D02*
X116171130Y-108858151D01*
X118802500Y-116658151D02*
X120062500Y-117918151D01*
X114052500Y-112108151D02*
X114052500Y-110976781D01*
X116171130Y-108858151D02*
X118802500Y-108858151D01*
%TO.N,GND*%
X77682500Y-92288151D02*
X79168500Y-93774151D01*
X79168500Y-93774151D02*
X79168500Y-106372151D01*
X79168500Y-106372151D02*
X77652500Y-107888151D01*
X104122500Y-130358151D02*
X104102500Y-130338151D01*
X104122500Y-132738151D02*
X104122500Y-130358151D01*
%TO.N,+3.3V*%
X106602500Y-130338151D02*
X106602500Y-132678151D01*
X106602500Y-132678151D02*
X106662500Y-132738151D01*
%TO.N,/SDA*%
X122940000Y-83268151D02*
X122252500Y-83955651D01*
X126852500Y-83268151D02*
X122940000Y-83268151D01*
%TO.N,Net-(D4-A)*%
X114042500Y-118439521D02*
X118931130Y-123328151D01*
X114042500Y-118208151D02*
X114042500Y-118439521D01*
%TO.N,Net-(U1-GPB3)*%
X112402500Y-118208151D02*
X119362500Y-125168151D01*
X111502500Y-118208151D02*
X112402500Y-118208151D01*
%TO.N,Net-(U1-GPB4)*%
X111502500Y-115208151D02*
X110402500Y-116308151D01*
X110402500Y-116308151D02*
X110402500Y-122808151D01*
%TO.N,Net-(T1-M2A)*%
X88048672Y-60176190D02*
X83802500Y-64422362D01*
X83802500Y-91248151D02*
X82762500Y-92288151D01*
X83802500Y-64422362D02*
X83802500Y-91248151D01*
%TO.N,Net-(T1-M1A)*%
X91638672Y-61011265D02*
X91638672Y-59956190D01*
X91638672Y-59956190D02*
X90588672Y-58906190D01*
X91638672Y-61881115D02*
X91638672Y-61011265D01*
X85302500Y-92288151D02*
X84202500Y-91188151D01*
X84202500Y-71857287D02*
X91638672Y-64421115D01*
X84202500Y-91188151D02*
X84202500Y-71857287D01*
X91638672Y-64421115D02*
X91638672Y-61881115D01*
%TO.N,Net-(D3-A)*%
X114047500Y-106008151D02*
X115697500Y-104358151D01*
%TO.N,Net-(U1-GPA5)*%
X113052500Y-131608151D02*
X113052500Y-133358151D01*
X113052500Y-133358151D02*
X113652500Y-133958151D01*
X121902500Y-140208151D02*
X121902500Y-140358151D01*
X108652500Y-105338151D02*
X110002500Y-106688151D01*
X115652500Y-133958151D02*
X121902500Y-140208151D01*
%TO.N,Net-(D3-A)*%
X115697500Y-104358151D02*
X125452500Y-104358151D01*
%TO.N,Net-(U1-GPA5)*%
X113652500Y-133958151D02*
X115652500Y-133958151D01*
X110002500Y-106688151D02*
X110002500Y-128558151D01*
X110002500Y-128558151D02*
X113052500Y-131608151D01*
%TO.N,+3.3V*%
X90402500Y-107888151D02*
X90402500Y-110738151D01*
X90402500Y-110738151D02*
X90352500Y-110788151D01*
%TO.N,GND*%
X86902500Y-138108151D02*
X89152500Y-140358151D01*
%TO.N,Net-(MC2-Pin_30)*%
X101702500Y-107208151D02*
X112942500Y-95968151D01*
%TO.N,GND*%
X88002500Y-133898151D02*
X86902500Y-134998151D01*
X89152500Y-140358151D02*
X93962500Y-140358151D01*
X86902500Y-134998151D02*
X86902500Y-138108151D01*
%TO.N,Net-(MC2-Pin_30)*%
X112942500Y-95968151D02*
X126852500Y-95968151D01*
%TO.N,GND*%
X77652500Y-110788151D02*
X77652500Y-107888151D01*
X106112500Y-119548151D02*
X106107500Y-119553151D01*
X106112500Y-105338151D02*
X106112500Y-114558151D01*
%TO.N,Net-(U1-GPA4)*%
X112842500Y-133838151D02*
X111286865Y-133838151D01*
X111286865Y-133838151D02*
X110469657Y-133020943D01*
X107497500Y-126618837D02*
X107497500Y-110043151D01*
X107497500Y-110043151D02*
X108652500Y-108888151D01*
X110469657Y-133020943D02*
X110469657Y-129590994D01*
X119362500Y-140358151D02*
X112842500Y-133838151D01*
X110469657Y-129590994D02*
X107497500Y-126618837D01*
%TO.N,GND*%
X98452500Y-124988151D02*
X100702500Y-127238151D01*
%TO.N,+12V*%
X96652500Y-112858151D02*
X97952500Y-111558151D01*
X96652500Y-126288151D02*
X96652500Y-112858151D01*
X98042500Y-111558151D02*
X98052500Y-111568151D01*
X97952500Y-111558151D02*
X98042500Y-111558151D01*
%TO.N,GND*%
X98452500Y-114508151D02*
X98452500Y-124988151D01*
%TO.N,+12V*%
X95702500Y-127238151D02*
X96652500Y-126288151D01*
%TO.N,GND*%
X98052500Y-114108151D02*
X98452500Y-114508151D01*
%TO.N,+12V*%
X75152500Y-110748151D02*
X75112500Y-110788151D01*
X75152500Y-107888151D02*
X75152500Y-110748151D01*
%TO.N,+3.3V*%
X90402500Y-89438151D02*
X90402500Y-92268151D01*
X90402500Y-92268151D02*
X90382500Y-92288151D01*
%TO.N,Net-(T2-M2A)*%
X91638672Y-82971979D02*
X88902500Y-85708151D01*
X83132791Y-111188442D02*
X82732500Y-110788151D01*
X88902500Y-105418733D02*
X83132791Y-111188442D01*
X91638672Y-78878237D02*
X91638672Y-82971979D01*
X88902500Y-85708151D02*
X88902500Y-105418733D01*
X90588672Y-77828237D02*
X91638672Y-78878237D01*
%TO.N,Net-(T2-M2B)*%
X80192500Y-110788151D02*
X81246500Y-109734151D01*
X81246500Y-109734151D02*
X82076500Y-109734151D01*
X82076500Y-109734151D02*
X86652500Y-105158151D01*
X86652500Y-80494409D02*
X88048672Y-79098237D01*
X86652500Y-105158151D02*
X86652500Y-80494409D01*
%TO.N,+12V*%
X75152500Y-89438151D02*
X75152500Y-92278151D01*
X75152500Y-92278151D02*
X75142500Y-92288151D01*
%TO.N,GND*%
X101562500Y-114018151D02*
X101602500Y-114018151D01*
X105912500Y-119458151D02*
X102412500Y-119458151D01*
X102412500Y-119458151D02*
X102052500Y-119098151D01*
%TO.N,+12V*%
X101522500Y-111558151D02*
X101602500Y-111478151D01*
%TO.N,GND*%
X102052500Y-114018151D02*
X103012500Y-113058151D01*
X106007500Y-119553151D02*
X105912500Y-119458151D01*
X106107500Y-119553151D02*
X106007500Y-119553151D01*
X98052500Y-114108151D02*
X98062500Y-114098151D01*
%TO.N,+12V*%
X98052500Y-111568151D02*
X98062500Y-111558151D01*
%TO.N,GND*%
X102052500Y-119098151D02*
X101602500Y-119098151D01*
X101602500Y-114018151D02*
X102052500Y-114018151D01*
X103012500Y-113058151D02*
X105492500Y-113058151D01*
%TO.N,+12V*%
X98062500Y-111558151D02*
X101522500Y-111558151D01*
%TO.N,GND*%
X101522500Y-114098151D02*
X101602500Y-114018151D01*
X105492500Y-113058151D02*
X106112500Y-112438151D01*
X98062500Y-114098151D02*
X101522500Y-114098151D01*
X101002500Y-127238151D02*
X104102500Y-130338151D01*
X100702500Y-127238151D02*
X101002500Y-127238151D01*
%TO.N,/MOSI*%
X121642500Y-80858151D02*
X126852500Y-75648151D01*
X120702500Y-80858151D02*
X121642500Y-80858151D01*
%TO.N,/SCL*%
X124382500Y-80728151D02*
X121252500Y-83858151D01*
%TO.N,+3.3V*%
X89492500Y-128208151D02*
X89492500Y-134118151D01*
X86552500Y-125268151D02*
X89492500Y-128208151D01*
X86552500Y-122208151D02*
X86552500Y-125268151D01*
X89492500Y-134118151D02*
X90542500Y-135168151D01*
X91436500Y-93342151D02*
X90382500Y-92288151D01*
X91436500Y-106854151D02*
X91436500Y-93342151D01*
X90402500Y-107888151D02*
X91436500Y-106854151D01*
%TO.N,GND*%
X97982500Y-102808151D02*
X92902500Y-107888151D01*
X98102500Y-102808151D02*
X97982500Y-102808151D01*
X106112500Y-114558151D02*
X106112500Y-119548151D01*
X106112500Y-114558151D02*
X106112500Y-123138151D01*
%TO.N,/2DIR*%
X92922500Y-104988151D02*
X99402500Y-98508151D01*
X99402500Y-98508151D02*
X99402500Y-67938151D01*
X99402500Y-67938151D02*
X101852500Y-65488151D01*
%TO.N,/2PDN*%
X89207554Y-72852044D02*
X90153747Y-73798237D01*
X91723685Y-73098149D02*
X97652500Y-73098149D01*
X88498672Y-72852044D02*
X89207554Y-72852044D01*
X91023597Y-73798237D02*
X91723685Y-73098149D01*
X90153747Y-73798237D02*
X91023597Y-73798237D01*
%TO.N,Net-(C7-Pad1)*%
X101402500Y-105008151D02*
X98442500Y-105008151D01*
X98442500Y-105008151D02*
X98102500Y-105348151D01*
X101702500Y-104708151D02*
X101402500Y-105008151D01*
%TO.N,/1DIR*%
X101246865Y-106108151D02*
X102158135Y-106108151D01*
X100602500Y-108588151D02*
X100602500Y-106752516D01*
X103105000Y-105161286D02*
X103105000Y-87060651D01*
X97666154Y-110328151D02*
X98862500Y-110328151D01*
X92892500Y-115101805D02*
X97666154Y-110328151D01*
X100602500Y-106752516D02*
X101246865Y-106108151D01*
X103105000Y-87060651D02*
X101852500Y-85808151D01*
X92892500Y-123488151D02*
X92892500Y-115101805D01*
X102158135Y-106108151D02*
X103105000Y-105161286D01*
X98862500Y-110328151D02*
X100602500Y-108588151D01*
%TO.N,/1STEP*%
X100600000Y-102610651D02*
X100600000Y-89600651D01*
X96902500Y-104921805D02*
X97866154Y-103958151D01*
X100600000Y-89600651D02*
X101852500Y-88348151D01*
X90352500Y-123488151D02*
X90352500Y-116054497D01*
X97866154Y-103958151D02*
X99252500Y-103958151D01*
X90352500Y-116054497D02*
X96902500Y-109504497D01*
X96902500Y-109504497D02*
X96902500Y-104921805D01*
X99252500Y-103958151D02*
X100600000Y-102610651D01*
%TO.N,+12V*%
X93329082Y-124542151D02*
X89483918Y-124542151D01*
X93946500Y-123924733D02*
X93329082Y-124542151D01*
X93946500Y-115674151D02*
X93946500Y-123924733D01*
X77802500Y-121608151D02*
X77702500Y-121708151D01*
X89483918Y-124542151D02*
X88866500Y-123924733D01*
X87423082Y-121608151D02*
X77802500Y-121608151D01*
X88866500Y-123051569D02*
X87423082Y-121608151D01*
X98052500Y-111568151D02*
X93946500Y-115674151D01*
X88866500Y-123924733D02*
X88866500Y-123051569D01*
X76628500Y-106412151D02*
X76628500Y-93774151D01*
X76628500Y-93774151D02*
X75142500Y-92288151D01*
X75152500Y-107888151D02*
X76628500Y-106412151D01*
%TO.N,/BL*%
X86998672Y-70428237D02*
X86998672Y-74453162D01*
X86998672Y-74453162D02*
X87613747Y-75068237D01*
X98271258Y-59155651D02*
X86998672Y-70428237D01*
X87613747Y-75068237D02*
X88883747Y-75068237D01*
X95796729Y-84988287D02*
X91802500Y-88982516D01*
X91802500Y-88982516D02*
X91802500Y-91168151D01*
X88883747Y-75068237D02*
X90153747Y-76338237D01*
X91868500Y-93342151D02*
X97138500Y-93342151D01*
X120520000Y-59155651D02*
X98271258Y-59155651D01*
X90153747Y-76338237D02*
X95796729Y-76338237D01*
X91868500Y-91234151D02*
X91868500Y-93342151D01*
X126852500Y-65488151D02*
X120520000Y-59155651D01*
X95796729Y-76338237D02*
X95796729Y-84988287D01*
X91802500Y-91168151D02*
X91868500Y-91234151D01*
X97138500Y-93342151D02*
X98252500Y-92228151D01*
%TO.N,GND*%
X92892500Y-110788151D02*
X92892500Y-107898151D01*
X92892500Y-107898151D02*
X92902500Y-107888151D01*
X92922500Y-92288151D02*
X92922500Y-89458151D01*
X92922500Y-89458151D02*
X92902500Y-89438151D01*
%TO.N,/SDA*%
X96502500Y-132738151D02*
X95402500Y-133838151D01*
X95402500Y-133838151D02*
X91752500Y-133838151D01*
X91752500Y-133838151D02*
X90542500Y-132628151D01*
%TO.N,/SCK*%
X113152500Y-70708151D02*
X106952500Y-76908151D01*
X100852500Y-76908151D02*
X100702500Y-77058151D01*
X106952500Y-76908151D02*
X100852500Y-76908151D01*
%TO.N,/T2_DIAG*%
X123060000Y-84555651D02*
X126852500Y-88348151D01*
X91802500Y-114038811D02*
X91802500Y-107432516D01*
X91802500Y-107432516D02*
X92446865Y-106788151D01*
X84893160Y-120948151D02*
X91802500Y-114038811D01*
X96952500Y-101658151D02*
X100200000Y-98410651D01*
X93436815Y-106788151D02*
X96952500Y-103272466D01*
X75112500Y-120948151D02*
X84893160Y-120948151D01*
X101333697Y-84555651D02*
X123060000Y-84555651D01*
X96952500Y-103272466D02*
X96952500Y-101658151D01*
X92446865Y-106788151D02*
X93436815Y-106788151D01*
X100200000Y-85689348D02*
X101333697Y-84555651D01*
X100200000Y-98410651D02*
X100200000Y-85689348D01*
%TO.N,/RES*%
X123352500Y-73108151D02*
X116985000Y-79475651D01*
X100685000Y-79475651D02*
X100652500Y-79508151D01*
X116985000Y-79475651D02*
X100685000Y-79475651D01*
%TD*%
M02*
