%TF.GenerationSoftware,KiCad,Pcbnew,10.0.3*%
%TF.CreationDate,2026-06-11T17:52:50+01:00*%
%TF.ProjectId,ASTRA,41535452-412e-46b6-9963-61645f706362,3*%
%TF.SameCoordinates,Original*%
%TF.FileFunction,Copper,L2,Bot*%
%TF.FilePolarity,Positive*%
%FSLAX46Y46*%
G04 Gerber Fmt 4.6, Leading zero omitted, Abs format (unit mm)*
G04 Created by KiCad (PCBNEW 10.0.3) date 2026-06-11 17:52:50*
%MOMM*%
%LPD*%
G01*
G04 APERTURE LIST*
G04 Aperture macros list*
%AMRoundRect*
0 Rectangle with rounded corners*
0 $1 Rounding radius*
0 $2 $3 $4 $5 $6 $7 $8 $9 X,Y pos of 4 corners*
0 Add a 4 corners polygon primitive as box body*
4,1,4,$2,$3,$4,$5,$6,$7,$8,$9,$2,$3,0*
0 Add four circle primitives for the rounded corners*
1,1,$1+$1,$2,$3*
1,1,$1+$1,$4,$5*
1,1,$1+$1,$6,$7*
1,1,$1+$1,$8,$9*
0 Add four rect primitives between the rounded corners*
20,1,$1+$1,$2,$3,$4,$5,0*
20,1,$1+$1,$4,$5,$6,$7,0*
20,1,$1+$1,$6,$7,$8,$9,0*
20,1,$1+$1,$8,$9,$2,$3,0*%
G04 Aperture macros list end*
%TA.AperFunction,ComponentPad*%
%ADD10C,1.508000*%
%TD*%
%TA.AperFunction,ComponentPad*%
%ADD11R,1.508000X1.508000*%
%TD*%
%TA.AperFunction,ComponentPad*%
%ADD12C,1.600000*%
%TD*%
%TA.AperFunction,ComponentPad*%
%ADD13C,1.700000*%
%TD*%
%TA.AperFunction,ComponentPad*%
%ADD14R,1.700000X1.700000*%
%TD*%
%TA.AperFunction,ComponentPad*%
%ADD15C,1.500000*%
%TD*%
%TA.AperFunction,ComponentPad*%
%ADD16R,1.500000X1.500000*%
%TD*%
%TA.AperFunction,ComponentPad*%
%ADD17RoundRect,0.250000X-0.550000X-0.550000X0.550000X-0.550000X0.550000X0.550000X-0.550000X0.550000X0*%
%TD*%
%TA.AperFunction,ComponentPad*%
%ADD18C,1.800000*%
%TD*%
%TA.AperFunction,ComponentPad*%
%ADD19R,1.800000X1.800000*%
%TD*%
%TA.AperFunction,ComponentPad*%
%ADD20RoundRect,0.250000X-0.550000X0.550000X-0.550000X-0.550000X0.550000X-0.550000X0.550000X0.550000X0*%
%TD*%
%TA.AperFunction,ComponentPad*%
%ADD21C,1.905000*%
%TD*%
%TA.AperFunction,ViaPad*%
%ADD22C,0.600000*%
%TD*%
%TA.AperFunction,Conductor*%
%ADD23C,0.200000*%
%TD*%
G04 APERTURE END LIST*
D10*
%TO.P,T2,18,DIAG_18*%
%TO.N,/T2_DIAG*%
X75112500Y-120948151D03*
%TO.P,T2,17,INDEX_17*%
%TO.N,unconnected-(T2-INDEX-Pad17)*%
X75112500Y-118408151D03*
%TO.P,T2,16,~{EN}_16*%
%TO.N,/1EN*%
X75112500Y-123488151D03*
%TO.P,T2,15,MS1_15*%
%TO.N,unconnected-(T2-MS1-Pad15)*%
X77652500Y-123488151D03*
%TO.P,T2,14,MS2_14*%
%TO.N,unconnected-(T2-MS2-Pad14)*%
X80192500Y-123488151D03*
%TO.P,T2,13,SPRD_13*%
%TO.N,unconnected-(T2-SPRD-Pad13)*%
X82732500Y-123488151D03*
%TO.P,T2,12,UART_12*%
%TO.N,/1UART*%
X85272500Y-123488151D03*
%TO.P,T2,11,PDN_11*%
%TO.N,/1PDN*%
X87812500Y-123488151D03*
%TO.P,T2,10,STEP_10*%
%TO.N,/1STEP*%
X90352500Y-123488151D03*
%TO.P,T2,9,DIR_9*%
%TO.N,/1DIR*%
X92892500Y-123488151D03*
%TO.P,T2,8,VM_8*%
%TO.N,+12V*%
X75112500Y-110788151D03*
%TO.P,T2,7,GND_7*%
%TO.N,GND*%
X77652500Y-110788151D03*
%TO.P,T2,6,M2B_6*%
%TO.N,Net-(T2-M2B)*%
X80192500Y-110788151D03*
%TO.P,T2,5,M2A_5*%
%TO.N,Net-(T2-M2A)*%
X82732500Y-110788151D03*
%TO.P,T2,4,M1A_4*%
%TO.N,Net-(T2-M1A)*%
X85272500Y-110788151D03*
%TO.P,T2,3,M1B_3*%
%TO.N,Net-(T2-M1B)*%
X87812500Y-110788151D03*
%TO.P,T2,2,VIO_2*%
%TO.N,+3.3V*%
X90352500Y-110788151D03*
D11*
%TO.P,T2,1,GND_1*%
%TO.N,GND*%
X92892500Y-110788151D03*
%TD*%
D12*
%TO.P,R2,2*%
%TO.N,Net-(U1-GPB1)*%
X111512500Y-112108151D03*
%TO.P,R2,1*%
%TO.N,Net-(D2-A)*%
X114052500Y-112108151D03*
%TD*%
D13*
%TO.P,B1,4,Pin_4_4*%
%TO.N,GND*%
X101602500Y-119098151D03*
%TO.P,B1,3,Pin_3_3*%
%TO.N,+5V*%
X101602500Y-116558151D03*
%TO.P,B1,2,Pin_2_2*%
%TO.N,GND*%
X101602500Y-114018151D03*
D14*
%TO.P,B1,1,Pin_1_1*%
%TO.N,+12V*%
X101602500Y-111478151D03*
%TD*%
D15*
%TO.P,J2,8*%
%TO.N,Net-(T2-M2B)*%
X90588672Y-80368237D03*
%TO.P,J2,7*%
X88048672Y-79098237D03*
%TO.P,J2,6*%
%TO.N,Net-(T2-M2A)*%
X90588672Y-77828237D03*
%TO.P,J2,5*%
X88048672Y-76558237D03*
%TO.P,J2,4*%
%TO.N,Net-(T2-M1A)*%
X90588672Y-75288237D03*
%TO.P,J2,3*%
X88048672Y-74018237D03*
%TO.P,J2,2*%
%TO.N,Net-(T2-M1B)*%
X90588672Y-72748237D03*
D16*
%TO.P,J2,1*%
X88048672Y-71478237D03*
%TD*%
D12*
%TO.P,C2,2*%
%TO.N,GND*%
X77652500Y-107888151D03*
%TO.P,C2,1*%
%TO.N,+12V*%
X75152500Y-107888151D03*
%TD*%
D15*
%TO.P,J3,8*%
%TO.N,unconnected-(J3-Pad8)*%
X90542500Y-137708151D03*
%TO.P,J3,7*%
%TO.N,unconnected-(J3-Pad7)*%
X88002500Y-136438151D03*
%TO.P,J3,6*%
%TO.N,+3.3V*%
X90542500Y-135168151D03*
%TO.P,J3,5*%
%TO.N,GND*%
X88002500Y-133898151D03*
%TO.P,J3,4*%
%TO.N,/SDA*%
X90542500Y-132628151D03*
%TO.P,J3,3*%
%TO.N,GND*%
X88002500Y-131358151D03*
%TO.P,J3,2*%
%TO.N,/SCL*%
X90542500Y-130088151D03*
D16*
%TO.P,J3,1*%
%TO.N,GND*%
X88002500Y-128818151D03*
%TD*%
D11*
%TO.P,T1,1,GND_1*%
%TO.N,GND*%
X92922500Y-92288151D03*
D10*
%TO.P,T1,2,VIO_2*%
%TO.N,+3.3V*%
X90382500Y-92288151D03*
%TO.P,T1,3,M1B_3*%
%TO.N,Net-(T1-M1B)*%
X87842500Y-92288151D03*
%TO.P,T1,4,M1A_4*%
%TO.N,Net-(T1-M1A)*%
X85302500Y-92288151D03*
%TO.P,T1,5,M2A_5*%
%TO.N,Net-(T1-M2A)*%
X82762500Y-92288151D03*
%TO.P,T1,6,M2B_6*%
%TO.N,Net-(T1-M2B)*%
X80222500Y-92288151D03*
%TO.P,T1,7,GND_7*%
%TO.N,GND*%
X77682500Y-92288151D03*
%TO.P,T1,8,VM_8*%
%TO.N,+12V*%
X75142500Y-92288151D03*
%TO.P,T1,9,DIR_9*%
%TO.N,/2DIR*%
X92922500Y-104988151D03*
%TO.P,T1,10,STEP_10*%
%TO.N,/2STEP*%
X90382500Y-104988151D03*
%TO.P,T1,11,PDN_11*%
%TO.N,/2PDN*%
X87842500Y-104988151D03*
%TO.P,T1,12,UART_12*%
%TO.N,/2UART*%
X85302500Y-104988151D03*
%TO.P,T1,13,SPRD_13*%
%TO.N,unconnected-(T1-SPRD-Pad13)*%
X82762500Y-104988151D03*
%TO.P,T1,14,MS2_14*%
%TO.N,unconnected-(T1-MS2-Pad14)*%
X80222500Y-104988151D03*
%TO.P,T1,15,MS1_15*%
%TO.N,unconnected-(T1-MS1-Pad15)*%
X77682500Y-104988151D03*
%TO.P,T1,16,~{EN}_16*%
%TO.N,/2EN*%
X75142500Y-104988151D03*
%TO.P,T1,17,INDEX_17*%
%TO.N,unconnected-(T1-INDEX-Pad17)*%
X75142500Y-99908151D03*
%TO.P,T1,18,DIAG_18*%
%TO.N,/T1_DIAG*%
X75142500Y-102448151D03*
%TD*%
D13*
%TO.P,P1,3*%
%TO.N,N/C*%
X98052500Y-109028151D03*
%TO.P,P1,2*%
%TO.N,+12V*%
X98052500Y-111568151D03*
D14*
%TO.P,P1,1*%
%TO.N,GND*%
X98052500Y-114108151D03*
%TD*%
D12*
%TO.P,C1,2*%
%TO.N,GND*%
X100702500Y-127238151D03*
D17*
%TO.P,C1,1*%
%TO.N,+12V*%
X95702500Y-127238151D03*
%TD*%
D14*
%TO.P,SW3,1,1_1*%
%TO.N,Net-(U1-GPA3)*%
X108652500Y-112438151D03*
D13*
%TO.P,SW3,2,2_2*%
%TO.N,GND*%
X106112500Y-112438151D03*
%TD*%
D12*
%TO.P,R4,2*%
%TO.N,Net-(U1-GPB3)*%
X111502500Y-118208151D03*
%TO.P,R4,1*%
%TO.N,Net-(D4-A)*%
X114042500Y-118208151D03*
%TD*%
D13*
%TO.P,S1,8,Pin_8_8*%
%TO.N,/BL*%
X98252500Y-92228151D03*
%TO.P,S1,7,Pin_7_7*%
%TO.N,GND*%
X98252500Y-89688151D03*
%TO.P,S1,6,Pin_6_6*%
%TO.N,/DC*%
X98252500Y-87148151D03*
%TO.P,S1,5,Pin_5_5*%
%TO.N,/RES*%
X98252500Y-84608151D03*
%TO.P,S1,4,Pin_4_4*%
%TO.N,/MOSI*%
X98252500Y-82068151D03*
%TO.P,S1,3,Pin_3_3*%
%TO.N,/SCK*%
X98252500Y-79528151D03*
%TO.P,S1,2,Pin_2_2*%
%TO.N,+3.3V*%
X98252500Y-76988151D03*
D14*
%TO.P,S1,1,Pin_1_1*%
%TO.N,GND*%
X98252500Y-74448151D03*
%TD*%
D15*
%TO.P,J1,8*%
%TO.N,Net-(T1-M2B)*%
X90588672Y-63986190D03*
%TO.P,J1,7*%
X88048672Y-62716190D03*
%TO.P,J1,6*%
%TO.N,Net-(T1-M2A)*%
X90588672Y-61446190D03*
%TO.P,J1,5*%
X88048672Y-60176190D03*
%TO.P,J1,4*%
%TO.N,Net-(T1-M1A)*%
X90588672Y-58906190D03*
%TO.P,J1,3*%
X88048672Y-57636190D03*
%TO.P,J1,2*%
%TO.N,Net-(T1-M1B)*%
X90588672Y-56366190D03*
D16*
%TO.P,J1,1*%
X88048672Y-55096190D03*
%TD*%
D18*
%TO.P,D2,2,A_2*%
%TO.N,Net-(D2-A)*%
X120062500Y-117918151D03*
D19*
%TO.P,D2,1,K_1*%
%TO.N,GND*%
X117522500Y-117918151D03*
%TD*%
D14*
%TO.P,SW6,1,1_1*%
%TO.N,Net-(U1-GPA0)*%
X108652500Y-123138151D03*
D13*
%TO.P,SW6,2,2_2*%
%TO.N,GND*%
X106112500Y-123138151D03*
%TD*%
D12*
%TO.P,C4,2*%
%TO.N,GND*%
X77652500Y-89438151D03*
%TO.P,C4,1*%
%TO.N,+12V*%
X75152500Y-89438151D03*
%TD*%
%TO.P,C6,2*%
%TO.N,GND*%
X104102500Y-130338151D03*
%TO.P,C6,1*%
%TO.N,+3.3V*%
X106602500Y-130338151D03*
%TD*%
D18*
%TO.P,D4,2,A_2*%
%TO.N,Net-(D4-A)*%
X126517500Y-114258151D03*
D19*
%TO.P,D4,1,K_1*%
%TO.N,GND*%
X123977500Y-114258151D03*
%TD*%
D13*
%TO.P,SW7,2,2_2*%
%TO.N,Net-(C7-Pad1)*%
X98102500Y-105348151D03*
D14*
%TO.P,SW7,1,1_1*%
%TO.N,GND*%
X98102500Y-102808151D03*
%TD*%
D18*
%TO.P,D1,2,A_2*%
%TO.N,Net-(D1-A)*%
X120062500Y-110448151D03*
D19*
%TO.P,D1,1,K_1*%
%TO.N,GND*%
X117522500Y-110448151D03*
%TD*%
D12*
%TO.P,C7,2*%
%TO.N,Net-(MC2-Pin_30)*%
X101702500Y-107208151D03*
%TO.P,C7,1*%
%TO.N,Net-(C7-Pad1)*%
X101702500Y-104708151D03*
%TD*%
%TO.P,R5,2*%
%TO.N,Net-(U1-GPB4)*%
X111502500Y-115208151D03*
%TO.P,R5,1*%
%TO.N,Net-(D5-A)*%
X114042500Y-115208151D03*
%TD*%
D13*
%TO.P,SW1,2,2_2*%
%TO.N,GND*%
X106112500Y-105338151D03*
D14*
%TO.P,SW1,1,1_1*%
%TO.N,Net-(U1-GPA5)*%
X108652500Y-105338151D03*
%TD*%
%TO.P,SW5,1,1_1*%
%TO.N,Net-(U1-GPA1)*%
X108647500Y-119553151D03*
D13*
%TO.P,SW5,2,2_2*%
%TO.N,GND*%
X106107500Y-119553151D03*
%TD*%
D14*
%TO.P,SW2,1,1_1*%
%TO.N,Net-(U1-GPA4)*%
X108652500Y-108888151D03*
D13*
%TO.P,SW2,2,2_2*%
%TO.N,GND*%
X106112500Y-108888151D03*
%TD*%
D12*
%TO.P,C3,2*%
%TO.N,GND*%
X92902500Y-107888151D03*
%TO.P,C3,1*%
%TO.N,+3.3V*%
X90402500Y-107888151D03*
%TD*%
%TO.P,U1,28,GPA7_28*%
%TO.N,unconnected-(U1-GPA7-Pad28)*%
X126982500Y-140358151D03*
%TO.P,U1,27,GPA6_27*%
%TO.N,unconnected-(U1-GPA6-Pad27)*%
X124442500Y-140358151D03*
%TO.P,U1,26,GPA5_26*%
%TO.N,Net-(U1-GPA5)*%
X121902500Y-140358151D03*
%TO.P,U1,25,GPA4_25*%
%TO.N,Net-(U1-GPA4)*%
X119362500Y-140358151D03*
%TO.P,U1,24,GPA3_24*%
%TO.N,Net-(U1-GPA3)*%
X116822500Y-140358151D03*
%TO.P,U1,23,GPA2_23*%
%TO.N,Net-(U1-GPA2)*%
X114282500Y-140358151D03*
%TO.P,U1,22,GPA1_22*%
%TO.N,Net-(U1-GPA1)*%
X111742500Y-140358151D03*
%TO.P,U1,21,GPA0_21*%
%TO.N,Net-(U1-GPA0)*%
X109202500Y-140358151D03*
%TO.P,U1,20,INTA_20*%
%TO.N,unconnected-(U1-INTA-Pad20)*%
X106662500Y-140358151D03*
%TO.P,U1,19,INTB_19*%
%TO.N,unconnected-(U1-INTB-Pad19)*%
X104122500Y-140358151D03*
%TO.P,U1,18,~{RESET}_18*%
%TO.N,unconnected-(U1-~{RESET}-Pad18)*%
X101582500Y-140358151D03*
%TO.P,U1,17,A2_17*%
%TO.N,GND*%
X99042500Y-140358151D03*
%TO.P,U1,16,A1_16*%
X96502500Y-140358151D03*
%TO.P,U1,15,A0_15*%
X93962500Y-140358151D03*
%TO.P,U1,14,NC_14*%
%TO.N,unconnected-(U1-NC-Pad14)*%
X93962500Y-132738151D03*
%TO.P,U1,13,SDA_13*%
%TO.N,/SDA*%
X96502500Y-132738151D03*
%TO.P,U1,12,SCK_12*%
%TO.N,/SCL*%
X99042500Y-132738151D03*
%TO.P,U1,11,NC_11*%
%TO.N,unconnected-(U1-NC-Pad11)*%
X101582500Y-132738151D03*
%TO.P,U1,10,V_{SS}_10*%
%TO.N,GND*%
X104122500Y-132738151D03*
%TO.P,U1,9,V_{DD}_9*%
%TO.N,+3.3V*%
X106662500Y-132738151D03*
%TO.P,U1,8,GPB7_8*%
%TO.N,unconnected-(U1-GPB7-Pad8)*%
X109202500Y-132738151D03*
%TO.P,U1,7,GPB6_7*%
%TO.N,unconnected-(U1-GPB6-Pad7)*%
X111742500Y-132738151D03*
%TO.P,U1,6,GPB5_6*%
%TO.N,unconnected-(U1-GPB5-Pad6)*%
X114282500Y-132738151D03*
%TO.P,U1,5,GPB4_5*%
%TO.N,Net-(U1-GPB4)*%
X116822500Y-132738151D03*
%TO.P,U1,4,GPB3_4*%
%TO.N,Net-(U1-GPB3)*%
X119362500Y-132738151D03*
%TO.P,U1,3,GPB2_3*%
%TO.N,Net-(U1-GPB2)*%
X121902500Y-132738151D03*
%TO.P,U1,2,GPB1_2*%
%TO.N,Net-(U1-GPB1)*%
X124442500Y-132738151D03*
D20*
%TO.P,U1,1,GPB0_1*%
%TO.N,Net-(U1-GPB0)*%
X126982500Y-132738151D03*
%TD*%
D14*
%TO.P,SW4,1,1_1*%
%TO.N,Net-(U1-GPA2)*%
X108652500Y-115988151D03*
D13*
%TO.P,SW4,2,2_2*%
%TO.N,GND*%
X106112500Y-115988151D03*
%TD*%
D18*
%TO.P,D5,2,A_2*%
%TO.N,Net-(D5-A)*%
X126517500Y-121728151D03*
D19*
%TO.P,D5,1,K_1*%
%TO.N,GND*%
X123977500Y-121728151D03*
%TD*%
D12*
%TO.P,R1,2*%
%TO.N,Net-(U1-GPB0)*%
X111507500Y-109058151D03*
%TO.P,R1,1*%
%TO.N,Net-(D1-A)*%
X114047500Y-109058151D03*
%TD*%
%TO.P,R3,2*%
%TO.N,Net-(U1-GPB2)*%
X111507500Y-106008151D03*
%TO.P,R3,1*%
%TO.N,Net-(D3-A)*%
X114047500Y-106008151D03*
%TD*%
%TO.P,C5,2*%
%TO.N,GND*%
X92902500Y-89438151D03*
%TO.P,C5,1*%
%TO.N,+3.3V*%
X90402500Y-89438151D03*
%TD*%
D18*
%TO.P,D3,2,A_2*%
%TO.N,Net-(D3-A)*%
X126517500Y-106788151D03*
D19*
%TO.P,D3,1,K_1*%
%TO.N,GND*%
X123977500Y-106788151D03*
%TD*%
D21*
%TO.P,MC2,1,Pin_1_1*%
%TO.N,+3.3V*%
X101852500Y-60408151D03*
%TO.P,MC2,2,Pin_3_2*%
%TO.N,GND*%
X101852500Y-62948151D03*
%TO.P,MC2,3,Pin_5_3*%
%TO.N,/2DIR*%
X101852500Y-65488151D03*
%TO.P,MC2,4,Pin_7_4*%
%TO.N,unconnected-(MC2-Pin_7-Pad4)*%
X101852500Y-68028151D03*
%TO.P,MC2,5,5_5*%
%TO.N,unconnected-(MC2-Pad5)*%
X101852500Y-70568151D03*
%TO.P,MC2,6,Pin_11_6*%
%TO.N,/2STEP*%
X101852500Y-73108151D03*
%TO.P,MC2,7,Pin_13_7*%
%TO.N,/2PDN*%
X101852500Y-75648151D03*
%TO.P,MC2,8,Pin_15_8*%
%TO.N,unconnected-(MC2-Pin_15-Pad8)*%
X101852500Y-78188151D03*
%TO.P,MC2,9,Pin_17_9*%
%TO.N,/2UART*%
X101852500Y-80728151D03*
%TO.P,MC2,10,Pin_19_10*%
%TO.N,/2EN*%
X101852500Y-83268151D03*
%TO.P,MC2,11,Pin_21_11*%
%TO.N,/1DIR*%
X101852500Y-85808151D03*
%TO.P,MC2,12,Pin_23_12*%
%TO.N,/1STEP*%
X101852500Y-88348151D03*
%TO.P,MC2,13,Pin_25_13*%
%TO.N,/1PDN*%
X101852500Y-90888151D03*
%TO.P,MC2,14,Pin_27_14*%
%TO.N,/1UART*%
X101852500Y-93428151D03*
%TO.P,MC2,15,Pin_29_15*%
%TO.N,/1EN*%
X101852500Y-95968151D03*
%TO.P,MC2,30,Pin_2_30*%
%TO.N,unconnected-(MC2-Pin_2-Pad30)*%
X126852500Y-60408151D03*
%TO.P,MC2,29,Pin_4_29*%
%TO.N,GND*%
X126852500Y-62948151D03*
%TO.P,MC2,28,Pin_6_28*%
%TO.N,/BL*%
X126852500Y-65488151D03*
%TO.P,MC2,27,Pin_8_27*%
%TO.N,unconnected-(MC2-Pin_8-Pad27)*%
X126852500Y-68028151D03*
%TO.P,MC2,26,Pin_10_26*%
%TO.N,/DC*%
X126852500Y-70568151D03*
%TO.P,MC2,25,Pin_12_25*%
%TO.N,/RES*%
X126852500Y-73108151D03*
%TO.P,MC2,24,Pin_14_24*%
%TO.N,/MOSI*%
X126852500Y-75648151D03*
%TO.P,MC2,23,Pin_16_23*%
%TO.N,/SCK*%
X126852500Y-78188151D03*
%TO.P,MC2,22,Pin_18_22*%
%TO.N,/SCL*%
X126852500Y-80728151D03*
%TO.P,MC2,21,Pin_20_21*%
%TO.N,/SDA*%
X126852500Y-83268151D03*
%TO.P,MC2,20,Pin_22_20*%
%TO.N,/T1_DIAG*%
X126852500Y-85808151D03*
%TO.P,MC2,19,Pin_24_19*%
%TO.N,/T2_DIAG*%
X126852500Y-88348151D03*
%TO.P,MC2,18,Pin_26_18*%
%TO.N,unconnected-(MC2-Pin_26-Pad18)*%
X126852500Y-90888151D03*
%TO.P,MC2,17,Pin_28_17*%
%TO.N,unconnected-(MC2-Pin_28-Pad17)*%
X126852500Y-93428151D03*
%TO.P,MC2,16,Pin_30_16*%
%TO.N,Net-(MC2-Pin_30)*%
X126852500Y-95968151D03*
%TD*%
D22*
%TO.N,GND*%
X92950000Y-94400000D03*
X98100000Y-96350000D03*
X123200000Y-62900000D03*
X91100000Y-112850000D03*
%TO.N,+3.3V*%
X86552500Y-122208151D03*
%TO.N,/SDA*%
X122252500Y-83955651D03*
%TO.N,/DC*%
X100702500Y-82058151D03*
%TO.N,/2PDN*%
X88498672Y-72852044D03*
X97652500Y-73098149D03*
%TO.N,+3.3V*%
X94752500Y-84808151D03*
X95452500Y-72458151D03*
%TO.N,/SCL*%
X121252500Y-83858151D03*
%TO.N,/MOSI*%
X120702500Y-80858151D03*
%TO.N,+12V*%
X77702500Y-121708151D03*
%TO.N,/RES*%
X100652500Y-79508151D03*
%TO.N,/SCK*%
X100702500Y-77058151D03*
X113152500Y-70708151D03*
%TO.N,/RES*%
X123352500Y-73108151D03*
%TD*%
%TO.N,GND*%
D23*
X92950000Y-94400000D02*
X92922500Y-94372500D01*
X92922500Y-94372500D02*
X92922500Y-92288151D01*
X98102500Y-96352500D02*
X98100000Y-96350000D01*
X98102500Y-102808151D02*
X98102500Y-96352500D01*
X98100000Y-96350000D02*
X98100000Y-96200000D01*
X123248151Y-62948151D02*
X126852500Y-62948151D01*
X123200000Y-62900000D02*
X123248151Y-62948151D01*
X91100000Y-112850000D02*
X91100000Y-112580651D01*
X91100000Y-112580651D02*
X92892500Y-110788151D01*
%TO.N,/1PDN*%
X96952500Y-95788151D02*
X101852500Y-90888151D01*
X96952500Y-105393786D02*
X96952500Y-95788151D01*
X91244974Y-110190042D02*
X92446865Y-108988151D01*
X91406500Y-110351569D02*
X91244974Y-110190042D01*
X91406500Y-111224733D02*
X91406500Y-110351569D01*
X90100000Y-112531233D02*
X91406500Y-111224733D01*
X92446865Y-108988151D02*
X93358135Y-108988151D01*
X87812500Y-123488151D02*
X90100000Y-121200651D01*
X90100000Y-121200651D02*
X90100000Y-112531233D01*
X93358135Y-108988151D02*
X96952500Y-105393786D01*
%TO.N,/SCL*%
X104002500Y-101108151D02*
X121252500Y-83858151D01*
X104002500Y-120822895D02*
X104002500Y-101108151D01*
X104002500Y-120822895D02*
X94737244Y-130088151D01*
X94737244Y-130088151D02*
X90542500Y-130088151D01*
%TO.N,GND*%
X107262500Y-104188151D02*
X121377500Y-104188151D01*
X106112500Y-105338151D02*
X107262500Y-104188151D01*
X121377500Y-104188151D02*
X123977500Y-106788151D01*
%TO.N,+12V*%
X76552500Y-112228151D02*
X75112500Y-110788151D01*
X76552500Y-120558151D02*
X76552500Y-112228151D01*
X77702500Y-121708151D02*
X76552500Y-120558151D01*
%TO.N,/SCK*%
X100602500Y-77178151D02*
X98252500Y-79528151D01*
X100602500Y-77158151D02*
X100602500Y-77178151D01*
X100702500Y-77058151D02*
X100602500Y-77158151D01*
X120632500Y-78188151D02*
X113152500Y-70708151D01*
X126852500Y-78188151D02*
X120632500Y-78188151D01*
%TO.N,/MOSI*%
X117040000Y-84520651D02*
X120702500Y-80858151D01*
X100600000Y-85254348D02*
X101333697Y-84520651D01*
X100600000Y-86426997D02*
X100600000Y-85254348D01*
X101333697Y-84520651D02*
X117040000Y-84520651D01*
X97776154Y-88298151D02*
X98728846Y-88298151D01*
X97102500Y-87624497D02*
X97776154Y-88298151D01*
X97102500Y-83218151D02*
X97102500Y-87624497D01*
X98728846Y-88298151D02*
X100600000Y-86426997D01*
X98252500Y-82068151D02*
X97102500Y-83218151D01*
%TO.N,/RES*%
X123352500Y-73108151D02*
X126852500Y-73108151D01*
X100102500Y-80058151D02*
X100652500Y-79508151D01*
X100102500Y-82092465D02*
X100102500Y-80058151D01*
X98252500Y-83942465D02*
X100102500Y-82092465D01*
X98252500Y-84608151D02*
X98252500Y-83942465D01*
%TO.N,/DC*%
X99402500Y-83358151D02*
X99402500Y-85998151D01*
X100702500Y-82058151D02*
X99402500Y-83358151D01*
X99402500Y-85998151D02*
X98252500Y-87148151D01*
%TO.N,/SDA*%
X96502500Y-129882516D02*
X96502500Y-132738151D01*
X104557500Y-121827516D02*
X96502500Y-129882516D01*
X104557500Y-101650651D02*
X104557500Y-121827516D01*
X122252500Y-83955651D02*
X104557500Y-101650651D01*
%TO.N,+3.3V*%
X86552500Y-114588151D02*
X86552500Y-122208151D01*
X90352500Y-110788151D02*
X86552500Y-114588151D01*
X95452500Y-74188151D02*
X95452500Y-72458151D01*
X98252500Y-76988151D02*
X95452500Y-74188151D01*
X94752500Y-80488151D02*
X94752500Y-84808151D01*
X98252500Y-76988151D02*
X94752500Y-80488151D01*
X104232500Y-135168151D02*
X106662500Y-132738151D01*
X90542500Y-135168151D02*
X104232500Y-135168151D01*
%TO.N,/T1_DIAG*%
X90344236Y-53246190D02*
X101333697Y-64235651D01*
X86667302Y-53246190D02*
X90344236Y-53246190D01*
X76552500Y-63360992D02*
X86667302Y-53246190D01*
X76552500Y-101038151D02*
X76552500Y-63360992D01*
X105280000Y-64235651D02*
X126852500Y-85808151D01*
X75142500Y-102448151D02*
X76552500Y-101038151D01*
X101333697Y-64235651D02*
X105280000Y-64235651D01*
%TO.N,/2EN*%
X103505000Y-81615651D02*
X101852500Y-83268151D01*
X103505000Y-70449348D02*
X103505000Y-81615651D01*
X102371303Y-69315651D02*
X103505000Y-70449348D01*
X101333697Y-69315651D02*
X102371303Y-69315651D01*
X100600000Y-68581954D02*
X101333697Y-69315651D01*
X100600000Y-64892593D02*
X100600000Y-68581954D01*
X89353597Y-53646190D02*
X100600000Y-64892593D01*
X86832987Y-53646190D02*
X89353597Y-53646190D01*
X78768500Y-61710676D02*
X86832987Y-53646190D01*
X78768500Y-101362151D02*
X78768500Y-61710676D01*
X75142500Y-104988151D02*
X78768500Y-101362151D01*
%TO.N,/2UART*%
X103105000Y-79475651D02*
X101852500Y-80728151D01*
X103105000Y-72589348D02*
X103105000Y-79475651D01*
X102371303Y-71855651D02*
X103105000Y-72589348D01*
X100776283Y-71298237D02*
X101333697Y-71855651D01*
X89988062Y-71298237D02*
X100776283Y-71298237D01*
X89498672Y-70808847D02*
X89988062Y-71298237D01*
X89498672Y-54446190D02*
X89498672Y-70808847D01*
X89098672Y-54046190D02*
X89498672Y-54446190D01*
X101333697Y-71855651D02*
X102371303Y-71855651D01*
X86998672Y-54046190D02*
X89098672Y-54046190D01*
X79168500Y-61876362D02*
X86998672Y-54046190D01*
X79168500Y-98854151D02*
X79168500Y-61876362D01*
X85302500Y-104988151D02*
X79168500Y-98854151D01*
%TO.N,/2PDN*%
X99302498Y-73098149D02*
X101852500Y-75648151D01*
X97652500Y-73098149D02*
X99302498Y-73098149D01*
X87729940Y-72852044D02*
X88498672Y-72852044D01*
X86998672Y-73583312D02*
X87729940Y-72852044D01*
X81276500Y-91851569D02*
X86998672Y-86129397D01*
X81276500Y-98422151D02*
X81276500Y-91851569D01*
X86998672Y-86129397D02*
X86998672Y-73583312D01*
X87842500Y-104988151D02*
X81276500Y-98422151D01*
%TO.N,/2STEP*%
X90153747Y-71698237D02*
X100442586Y-71698237D01*
X89302500Y-88982516D02*
X89538672Y-88746344D01*
X100442586Y-71698237D02*
X101852500Y-73108151D01*
X89302500Y-103908151D02*
X89302500Y-88982516D01*
X90382500Y-104988151D02*
X89302500Y-103908151D01*
X89538672Y-88746344D02*
X89538672Y-72313312D01*
X89538672Y-72313312D02*
X90153747Y-71698237D01*
%TO.N,/1EN*%
X100200000Y-114826337D02*
X100200000Y-97620651D01*
X91406500Y-121077255D02*
X93949082Y-121077255D01*
X90389082Y-124942151D02*
X91406500Y-123924733D01*
X76566500Y-124942151D02*
X90389082Y-124942151D01*
X100200000Y-97620651D02*
X101852500Y-95968151D01*
X75112500Y-123488151D02*
X76566500Y-124942151D01*
X91406500Y-123924733D02*
X91406500Y-121077255D01*
X93949082Y-121077255D02*
X100200000Y-114826337D01*
%TO.N,/1UART*%
X86326500Y-124542151D02*
X85272500Y-123488151D01*
X88249082Y-124542151D02*
X86326500Y-124542151D01*
X88866500Y-123924733D02*
X88249082Y-124542151D01*
X88866500Y-123051569D02*
X88866500Y-123924733D01*
X96659918Y-115258151D02*
X88866500Y-123051569D01*
X99202500Y-115258151D02*
X96659918Y-115258151D01*
X99252500Y-115208151D02*
X99202500Y-115258151D01*
X99252500Y-96028151D02*
X99252500Y-115208151D01*
X101852500Y-93428151D02*
X99252500Y-96028151D01*
%TO.N,Net-(T2-M1A)*%
X90253082Y-106608151D02*
X89452500Y-106608151D01*
X91802500Y-105058733D02*
X90253082Y-106608151D01*
X89452500Y-106608151D02*
X85272500Y-110788151D01*
X90588672Y-75288237D02*
X91802500Y-76502065D01*
X91802500Y-76502065D02*
X91802500Y-105058733D01*
%TO.N,Net-(T2-M1B)*%
X88866500Y-109734151D02*
X87812500Y-110788151D01*
X91802500Y-107432516D02*
X91802500Y-108043786D01*
X91802500Y-108043786D02*
X90112135Y-109734151D01*
X93058135Y-106788151D02*
X92446865Y-106788151D01*
X90112135Y-109734151D02*
X88866500Y-109734151D01*
X94102500Y-76262065D02*
X94102500Y-105743786D01*
X90588672Y-72748237D02*
X94102500Y-76262065D01*
X94102500Y-105743786D02*
X93058135Y-106788151D01*
X92446865Y-106788151D02*
X91802500Y-107432516D01*
%TO.N,Net-(T1-M1B)*%
X87752500Y-92198151D02*
X87842500Y-92288151D01*
X87752500Y-85858151D02*
X87752500Y-92198151D01*
X89098672Y-84511979D02*
X87752500Y-85858151D01*
X89098672Y-56146190D02*
X89098672Y-84511979D01*
X88048672Y-55096190D02*
X89098672Y-56146190D01*
%TO.N,Net-(T1-M2B)*%
X84552500Y-87958151D02*
X84552500Y-66212362D01*
X80222500Y-92288151D02*
X84552500Y-87958151D01*
X84552500Y-66212362D02*
X88048672Y-62716190D01*
%TO.N,GND*%
X94732500Y-110788151D02*
X98052500Y-114108151D01*
X92892500Y-110788151D02*
X94732500Y-110788151D01*
%TO.N,Net-(U1-GPA0)*%
X110302500Y-132282516D02*
X110302500Y-139258151D01*
X110302500Y-139258151D02*
X109202500Y-140358151D01*
X108652500Y-123138151D02*
X108652500Y-130632516D01*
X108652500Y-130632516D02*
X110302500Y-132282516D01*
%TO.N,Net-(U1-GPA1)*%
X112842500Y-139258151D02*
X111742500Y-140358151D01*
X112842500Y-132282516D02*
X112842500Y-139258151D01*
X109802500Y-129242516D02*
X112842500Y-132282516D01*
X109802500Y-121103151D02*
X109802500Y-129242516D01*
X104957500Y-120029497D02*
X106031154Y-121103151D01*
X104957500Y-119076805D02*
X104957500Y-120029497D01*
X106031154Y-118003151D02*
X104957500Y-119076805D01*
X108752500Y-118003151D02*
X106031154Y-118003151D01*
X107502500Y-117138151D02*
X108108846Y-117138151D01*
X107502500Y-114838151D02*
X107502500Y-117138151D01*
X108108846Y-117138151D02*
X108752500Y-117781805D01*
X109802500Y-114838151D02*
X107502500Y-114838151D01*
X106031154Y-121103151D02*
X109802500Y-121103151D01*
X109802500Y-118398150D02*
X109802500Y-114838151D01*
X108647500Y-119553151D02*
X109802500Y-118398150D01*
X108752500Y-117781805D02*
X108752500Y-118003151D01*
%TO.N,Net-(U1-GPA2)*%
X109402500Y-118232465D02*
X109402500Y-116738151D01*
X109231814Y-118403151D02*
X109402500Y-118232465D01*
X107497500Y-118403151D02*
X109231814Y-118403151D01*
X107497500Y-120703151D02*
X107497500Y-118403151D01*
X115382500Y-132282516D02*
X110902500Y-127802516D01*
X110902500Y-127802516D02*
X110902500Y-120703151D01*
X115382500Y-134422516D02*
X115382500Y-132282516D01*
X115352500Y-134452516D02*
X115382500Y-134422516D01*
X115352500Y-139288151D02*
X115352500Y-134452516D01*
X110902500Y-120703151D02*
X107497500Y-120703151D01*
X114282500Y-140358151D02*
X115352500Y-139288151D01*
X109402500Y-116738151D02*
X108652500Y-115988151D01*
%TO.N,Net-(U1-GPA3)*%
X110352500Y-118758151D02*
X110352500Y-114138151D01*
X111352500Y-122223837D02*
X111352500Y-119758151D01*
X118102500Y-128973837D02*
X111352500Y-122223837D01*
X111352500Y-119758151D02*
X110352500Y-118758151D01*
X118102500Y-139078151D02*
X118102500Y-128973837D01*
X116822500Y-140358151D02*
X118102500Y-139078151D01*
X110352500Y-114138151D02*
X108652500Y-112438151D01*
%TO.N,Net-(U1-GPB2)*%
X110407500Y-112558786D02*
X110407500Y-107108151D01*
X111522551Y-113673837D02*
X110407500Y-112558786D01*
X112602500Y-113673837D02*
X111522551Y-113673837D01*
X110407500Y-107108151D02*
X111507500Y-106008151D01*
X111752500Y-120708151D02*
X112602500Y-119858151D01*
X112602500Y-119858151D02*
X112602500Y-113673837D01*
X111752500Y-120708151D02*
X121902500Y-130858151D01*
X121902500Y-130858151D02*
X121902500Y-132738151D01*
%TO.N,Net-(U1-GPB1)*%
X115752500Y-124048151D02*
X124442500Y-132738151D01*
X115752500Y-114908151D02*
X115752500Y-124048151D01*
X114502500Y-113658151D02*
X115752500Y-114908151D01*
X113152500Y-113658151D02*
X114502500Y-113658151D01*
X111602500Y-112108151D02*
X113152500Y-113658151D01*
X111512500Y-112108151D02*
X111602500Y-112108151D01*
%TO.N,Net-(U1-GPB0)*%
X122777500Y-107958151D02*
X112607500Y-107958151D01*
X122777500Y-107988151D02*
X122777500Y-107958151D01*
X112607500Y-107958151D02*
X111507500Y-109058151D01*
X127952500Y-110658151D02*
X125282500Y-107988151D01*
X125282500Y-107988151D02*
X122777500Y-107988151D01*
X126982500Y-132738151D02*
X127952500Y-131768151D01*
X127952500Y-131768151D02*
X127952500Y-110658151D01*
%TD*%
M02*
