%TF.GenerationSoftware,KiCad,Pcbnew,10.0.3*%
%TF.CreationDate,2026-06-11T17:52:50+01:00*%
%TF.ProjectId,ASTRA,41535452-412e-46b6-9963-61645f706362,3*%
%TF.SameCoordinates,Original*%
%TF.FileFunction,Legend,Top*%
%TF.FilePolarity,Positive*%
%FSLAX46Y46*%
G04 Gerber Fmt 4.6, Leading zero omitted, Abs format (unit mm)*
G04 Created by KiCad (PCBNEW 10.0.3) date 2026-06-11 17:52:50*
%MOMM*%
%LPD*%
G01*
G04 APERTURE LIST*
%ADD10C,0.150000*%
%ADD11C,0.100000*%
%ADD12C,0.200000*%
%ADD13C,0.127000*%
%ADD14C,0.120000*%
G04 APERTURE END LIST*
D10*
X94612319Y-112825055D02*
X94612319Y-112253627D01*
X95612319Y-112539341D02*
X94612319Y-112539341D01*
X94707557Y-111967912D02*
X94659938Y-111920293D01*
X94659938Y-111920293D02*
X94612319Y-111825055D01*
X94612319Y-111825055D02*
X94612319Y-111586960D01*
X94612319Y-111586960D02*
X94659938Y-111491722D01*
X94659938Y-111491722D02*
X94707557Y-111444103D01*
X94707557Y-111444103D02*
X94802795Y-111396484D01*
X94802795Y-111396484D02*
X94898033Y-111396484D01*
X94898033Y-111396484D02*
X95040890Y-111444103D01*
X95040890Y-111444103D02*
X95612319Y-112015531D01*
X95612319Y-112015531D02*
X95612319Y-111396484D01*
X112615833Y-114932970D02*
X112282500Y-114456779D01*
X112044405Y-114932970D02*
X112044405Y-113932970D01*
X112044405Y-113932970D02*
X112425357Y-113932970D01*
X112425357Y-113932970D02*
X112520595Y-113980589D01*
X112520595Y-113980589D02*
X112568214Y-114028208D01*
X112568214Y-114028208D02*
X112615833Y-114123446D01*
X112615833Y-114123446D02*
X112615833Y-114266303D01*
X112615833Y-114266303D02*
X112568214Y-114361541D01*
X112568214Y-114361541D02*
X112520595Y-114409160D01*
X112520595Y-114409160D02*
X112425357Y-114456779D01*
X112425357Y-114456779D02*
X112044405Y-114456779D01*
X112996786Y-114028208D02*
X113044405Y-113980589D01*
X113044405Y-113980589D02*
X113139643Y-113932970D01*
X113139643Y-113932970D02*
X113377738Y-113932970D01*
X113377738Y-113932970D02*
X113472976Y-113980589D01*
X113472976Y-113980589D02*
X113520595Y-114028208D01*
X113520595Y-114028208D02*
X113568214Y-114123446D01*
X113568214Y-114123446D02*
X113568214Y-114218684D01*
X113568214Y-114218684D02*
X113520595Y-114361541D01*
X113520595Y-114361541D02*
X112949167Y-114932970D01*
X112949167Y-114932970D02*
X113568214Y-114932970D01*
X101447738Y-109239160D02*
X101590595Y-109286779D01*
X101590595Y-109286779D02*
X101638214Y-109334398D01*
X101638214Y-109334398D02*
X101685833Y-109429636D01*
X101685833Y-109429636D02*
X101685833Y-109572493D01*
X101685833Y-109572493D02*
X101638214Y-109667731D01*
X101638214Y-109667731D02*
X101590595Y-109715351D01*
X101590595Y-109715351D02*
X101495357Y-109762970D01*
X101495357Y-109762970D02*
X101114405Y-109762970D01*
X101114405Y-109762970D02*
X101114405Y-108762970D01*
X101114405Y-108762970D02*
X101447738Y-108762970D01*
X101447738Y-108762970D02*
X101542976Y-108810589D01*
X101542976Y-108810589D02*
X101590595Y-108858208D01*
X101590595Y-108858208D02*
X101638214Y-108953446D01*
X101638214Y-108953446D02*
X101638214Y-109048684D01*
X101638214Y-109048684D02*
X101590595Y-109143922D01*
X101590595Y-109143922D02*
X101542976Y-109191541D01*
X101542976Y-109191541D02*
X101447738Y-109239160D01*
X101447738Y-109239160D02*
X101114405Y-109239160D01*
X102638214Y-109762970D02*
X102066786Y-109762970D01*
X102352500Y-109762970D02*
X102352500Y-108762970D01*
X102352500Y-108762970D02*
X102257262Y-108905827D01*
X102257262Y-108905827D02*
X102162024Y-109001065D01*
X102162024Y-109001065D02*
X102066786Y-109048684D01*
X92503491Y-76256570D02*
X93217776Y-76256570D01*
X93217776Y-76256570D02*
X93360633Y-76304189D01*
X93360633Y-76304189D02*
X93455872Y-76399427D01*
X93455872Y-76399427D02*
X93503491Y-76542284D01*
X93503491Y-76542284D02*
X93503491Y-76637522D01*
X92598729Y-75827998D02*
X92551110Y-75780379D01*
X92551110Y-75780379D02*
X92503491Y-75685141D01*
X92503491Y-75685141D02*
X92503491Y-75447046D01*
X92503491Y-75447046D02*
X92551110Y-75351808D01*
X92551110Y-75351808D02*
X92598729Y-75304189D01*
X92598729Y-75304189D02*
X92693967Y-75256570D01*
X92693967Y-75256570D02*
X92789205Y-75256570D01*
X92789205Y-75256570D02*
X92932062Y-75304189D01*
X92932062Y-75304189D02*
X93503491Y-75875617D01*
X93503491Y-75875617D02*
X93503491Y-75256570D01*
X76235833Y-105947731D02*
X76188214Y-105995351D01*
X76188214Y-105995351D02*
X76045357Y-106042970D01*
X76045357Y-106042970D02*
X75950119Y-106042970D01*
X75950119Y-106042970D02*
X75807262Y-105995351D01*
X75807262Y-105995351D02*
X75712024Y-105900112D01*
X75712024Y-105900112D02*
X75664405Y-105804874D01*
X75664405Y-105804874D02*
X75616786Y-105614398D01*
X75616786Y-105614398D02*
X75616786Y-105471541D01*
X75616786Y-105471541D02*
X75664405Y-105281065D01*
X75664405Y-105281065D02*
X75712024Y-105185827D01*
X75712024Y-105185827D02*
X75807262Y-105090589D01*
X75807262Y-105090589D02*
X75950119Y-105042970D01*
X75950119Y-105042970D02*
X76045357Y-105042970D01*
X76045357Y-105042970D02*
X76188214Y-105090589D01*
X76188214Y-105090589D02*
X76235833Y-105138208D01*
X76616786Y-105138208D02*
X76664405Y-105090589D01*
X76664405Y-105090589D02*
X76759643Y-105042970D01*
X76759643Y-105042970D02*
X76997738Y-105042970D01*
X76997738Y-105042970D02*
X77092976Y-105090589D01*
X77092976Y-105090589D02*
X77140595Y-105138208D01*
X77140595Y-105138208D02*
X77188214Y-105233446D01*
X77188214Y-105233446D02*
X77188214Y-105328684D01*
X77188214Y-105328684D02*
X77140595Y-105471541D01*
X77140595Y-105471541D02*
X76569167Y-106042970D01*
X76569167Y-106042970D02*
X77188214Y-106042970D01*
X92457319Y-133596484D02*
X93171604Y-133596484D01*
X93171604Y-133596484D02*
X93314461Y-133644103D01*
X93314461Y-133644103D02*
X93409700Y-133739341D01*
X93409700Y-133739341D02*
X93457319Y-133882198D01*
X93457319Y-133882198D02*
X93457319Y-133977436D01*
X92457319Y-133215531D02*
X92457319Y-132596484D01*
X92457319Y-132596484D02*
X92838271Y-132929817D01*
X92838271Y-132929817D02*
X92838271Y-132786960D01*
X92838271Y-132786960D02*
X92885890Y-132691722D01*
X92885890Y-132691722D02*
X92933509Y-132644103D01*
X92933509Y-132644103D02*
X93028747Y-132596484D01*
X93028747Y-132596484D02*
X93266842Y-132596484D01*
X93266842Y-132596484D02*
X93362080Y-132644103D01*
X93362080Y-132644103D02*
X93409700Y-132691722D01*
X93409700Y-132691722D02*
X93457319Y-132786960D01*
X93457319Y-132786960D02*
X93457319Y-133072674D01*
X93457319Y-133072674D02*
X93409700Y-133167912D01*
X93409700Y-133167912D02*
X93362080Y-133215531D01*
X94642319Y-94325055D02*
X94642319Y-93753627D01*
X95642319Y-94039341D02*
X94642319Y-94039341D01*
X95642319Y-92896484D02*
X95642319Y-93467912D01*
X95642319Y-93182198D02*
X94642319Y-93182198D01*
X94642319Y-93182198D02*
X94785176Y-93277436D01*
X94785176Y-93277436D02*
X94880414Y-93372674D01*
X94880414Y-93372674D02*
X94928033Y-93467912D01*
X97314405Y-117332970D02*
X97314405Y-116332970D01*
X97314405Y-116332970D02*
X97695357Y-116332970D01*
X97695357Y-116332970D02*
X97790595Y-116380589D01*
X97790595Y-116380589D02*
X97838214Y-116428208D01*
X97838214Y-116428208D02*
X97885833Y-116523446D01*
X97885833Y-116523446D02*
X97885833Y-116666303D01*
X97885833Y-116666303D02*
X97838214Y-116761541D01*
X97838214Y-116761541D02*
X97790595Y-116809160D01*
X97790595Y-116809160D02*
X97695357Y-116856779D01*
X97695357Y-116856779D02*
X97314405Y-116856779D01*
X98838214Y-117332970D02*
X98266786Y-117332970D01*
X98552500Y-117332970D02*
X98552500Y-116332970D01*
X98552500Y-116332970D02*
X98457262Y-116475827D01*
X98457262Y-116475827D02*
X98362024Y-116571065D01*
X98362024Y-116571065D02*
X98266786Y-116618684D01*
X98035833Y-122347731D02*
X97988214Y-122395351D01*
X97988214Y-122395351D02*
X97845357Y-122442970D01*
X97845357Y-122442970D02*
X97750119Y-122442970D01*
X97750119Y-122442970D02*
X97607262Y-122395351D01*
X97607262Y-122395351D02*
X97512024Y-122300112D01*
X97512024Y-122300112D02*
X97464405Y-122204874D01*
X97464405Y-122204874D02*
X97416786Y-122014398D01*
X97416786Y-122014398D02*
X97416786Y-121871541D01*
X97416786Y-121871541D02*
X97464405Y-121681065D01*
X97464405Y-121681065D02*
X97512024Y-121585827D01*
X97512024Y-121585827D02*
X97607262Y-121490589D01*
X97607262Y-121490589D02*
X97750119Y-121442970D01*
X97750119Y-121442970D02*
X97845357Y-121442970D01*
X97845357Y-121442970D02*
X97988214Y-121490589D01*
X97988214Y-121490589D02*
X98035833Y-121538208D01*
X98988214Y-122442970D02*
X98416786Y-122442970D01*
X98702500Y-122442970D02*
X98702500Y-121442970D01*
X98702500Y-121442970D02*
X98607262Y-121585827D01*
X98607262Y-121585827D02*
X98512024Y-121681065D01*
X98512024Y-121681065D02*
X98416786Y-121728684D01*
X111439700Y-113771483D02*
X111487319Y-113628626D01*
X111487319Y-113628626D02*
X111487319Y-113390531D01*
X111487319Y-113390531D02*
X111439700Y-113295293D01*
X111439700Y-113295293D02*
X111392080Y-113247674D01*
X111392080Y-113247674D02*
X111296842Y-113200055D01*
X111296842Y-113200055D02*
X111201604Y-113200055D01*
X111201604Y-113200055D02*
X111106366Y-113247674D01*
X111106366Y-113247674D02*
X111058747Y-113295293D01*
X111058747Y-113295293D02*
X111011128Y-113390531D01*
X111011128Y-113390531D02*
X110963509Y-113581007D01*
X110963509Y-113581007D02*
X110915890Y-113676245D01*
X110915890Y-113676245D02*
X110868271Y-113723864D01*
X110868271Y-113723864D02*
X110773033Y-113771483D01*
X110773033Y-113771483D02*
X110677795Y-113771483D01*
X110677795Y-113771483D02*
X110582557Y-113723864D01*
X110582557Y-113723864D02*
X110534938Y-113676245D01*
X110534938Y-113676245D02*
X110487319Y-113581007D01*
X110487319Y-113581007D02*
X110487319Y-113342912D01*
X110487319Y-113342912D02*
X110534938Y-113200055D01*
X110487319Y-112866721D02*
X111487319Y-112628626D01*
X111487319Y-112628626D02*
X110773033Y-112438150D01*
X110773033Y-112438150D02*
X111487319Y-112247674D01*
X111487319Y-112247674D02*
X110487319Y-112009579D01*
X110487319Y-111723864D02*
X110487319Y-111104817D01*
X110487319Y-111104817D02*
X110868271Y-111438150D01*
X110868271Y-111438150D02*
X110868271Y-111295293D01*
X110868271Y-111295293D02*
X110915890Y-111200055D01*
X110915890Y-111200055D02*
X110963509Y-111152436D01*
X110963509Y-111152436D02*
X111058747Y-111104817D01*
X111058747Y-111104817D02*
X111296842Y-111104817D01*
X111296842Y-111104817D02*
X111392080Y-111152436D01*
X111392080Y-111152436D02*
X111439700Y-111200055D01*
X111439700Y-111200055D02*
X111487319Y-111295293D01*
X111487319Y-111295293D02*
X111487319Y-111581007D01*
X111487319Y-111581007D02*
X111439700Y-111676245D01*
X111439700Y-111676245D02*
X111392080Y-111723864D01*
X112605833Y-121032970D02*
X112272500Y-120556779D01*
X112034405Y-121032970D02*
X112034405Y-120032970D01*
X112034405Y-120032970D02*
X112415357Y-120032970D01*
X112415357Y-120032970D02*
X112510595Y-120080589D01*
X112510595Y-120080589D02*
X112558214Y-120128208D01*
X112558214Y-120128208D02*
X112605833Y-120223446D01*
X112605833Y-120223446D02*
X112605833Y-120366303D01*
X112605833Y-120366303D02*
X112558214Y-120461541D01*
X112558214Y-120461541D02*
X112510595Y-120509160D01*
X112510595Y-120509160D02*
X112415357Y-120556779D01*
X112415357Y-120556779D02*
X112034405Y-120556779D01*
X113462976Y-120366303D02*
X113462976Y-121032970D01*
X113224881Y-119985351D02*
X112986786Y-120699636D01*
X112986786Y-120699636D02*
X113605833Y-120699636D01*
X97490595Y-72085351D02*
X97633452Y-72132970D01*
X97633452Y-72132970D02*
X97871547Y-72132970D01*
X97871547Y-72132970D02*
X97966785Y-72085351D01*
X97966785Y-72085351D02*
X98014404Y-72037731D01*
X98014404Y-72037731D02*
X98062023Y-71942493D01*
X98062023Y-71942493D02*
X98062023Y-71847255D01*
X98062023Y-71847255D02*
X98014404Y-71752017D01*
X98014404Y-71752017D02*
X97966785Y-71704398D01*
X97966785Y-71704398D02*
X97871547Y-71656779D01*
X97871547Y-71656779D02*
X97681071Y-71609160D01*
X97681071Y-71609160D02*
X97585833Y-71561541D01*
X97585833Y-71561541D02*
X97538214Y-71513922D01*
X97538214Y-71513922D02*
X97490595Y-71418684D01*
X97490595Y-71418684D02*
X97490595Y-71323446D01*
X97490595Y-71323446D02*
X97538214Y-71228208D01*
X97538214Y-71228208D02*
X97585833Y-71180589D01*
X97585833Y-71180589D02*
X97681071Y-71132970D01*
X97681071Y-71132970D02*
X97919166Y-71132970D01*
X97919166Y-71132970D02*
X98062023Y-71180589D01*
X99014404Y-72132970D02*
X98442976Y-72132970D01*
X98728690Y-72132970D02*
X98728690Y-71132970D01*
X98728690Y-71132970D02*
X98633452Y-71275827D01*
X98633452Y-71275827D02*
X98538214Y-71371065D01*
X98538214Y-71371065D02*
X98442976Y-71418684D01*
X92503491Y-59874523D02*
X93217776Y-59874523D01*
X93217776Y-59874523D02*
X93360633Y-59922142D01*
X93360633Y-59922142D02*
X93455872Y-60017380D01*
X93455872Y-60017380D02*
X93503491Y-60160237D01*
X93503491Y-60160237D02*
X93503491Y-60255475D01*
X93503491Y-58874523D02*
X93503491Y-59445951D01*
X93503491Y-59160237D02*
X92503491Y-59160237D01*
X92503491Y-59160237D02*
X92646348Y-59255475D01*
X92646348Y-59255475D02*
X92741586Y-59350713D01*
X92741586Y-59350713D02*
X92789205Y-59445951D01*
X118054405Y-114412970D02*
X118054405Y-113412970D01*
X118054405Y-113412970D02*
X118292500Y-113412970D01*
X118292500Y-113412970D02*
X118435357Y-113460589D01*
X118435357Y-113460589D02*
X118530595Y-113555827D01*
X118530595Y-113555827D02*
X118578214Y-113651065D01*
X118578214Y-113651065D02*
X118625833Y-113841541D01*
X118625833Y-113841541D02*
X118625833Y-113984398D01*
X118625833Y-113984398D02*
X118578214Y-114174874D01*
X118578214Y-114174874D02*
X118530595Y-114270112D01*
X118530595Y-114270112D02*
X118435357Y-114365351D01*
X118435357Y-114365351D02*
X118292500Y-114412970D01*
X118292500Y-114412970D02*
X118054405Y-114412970D01*
X119006786Y-113508208D02*
X119054405Y-113460589D01*
X119054405Y-113460589D02*
X119149643Y-113412970D01*
X119149643Y-113412970D02*
X119387738Y-113412970D01*
X119387738Y-113412970D02*
X119482976Y-113460589D01*
X119482976Y-113460589D02*
X119530595Y-113508208D01*
X119530595Y-113508208D02*
X119578214Y-113603446D01*
X119578214Y-113603446D02*
X119578214Y-113698684D01*
X119578214Y-113698684D02*
X119530595Y-113841541D01*
X119530595Y-113841541D02*
X118959167Y-114412970D01*
X118959167Y-114412970D02*
X119578214Y-114412970D01*
X111439700Y-124471483D02*
X111487319Y-124328626D01*
X111487319Y-124328626D02*
X111487319Y-124090531D01*
X111487319Y-124090531D02*
X111439700Y-123995293D01*
X111439700Y-123995293D02*
X111392080Y-123947674D01*
X111392080Y-123947674D02*
X111296842Y-123900055D01*
X111296842Y-123900055D02*
X111201604Y-123900055D01*
X111201604Y-123900055D02*
X111106366Y-123947674D01*
X111106366Y-123947674D02*
X111058747Y-123995293D01*
X111058747Y-123995293D02*
X111011128Y-124090531D01*
X111011128Y-124090531D02*
X110963509Y-124281007D01*
X110963509Y-124281007D02*
X110915890Y-124376245D01*
X110915890Y-124376245D02*
X110868271Y-124423864D01*
X110868271Y-124423864D02*
X110773033Y-124471483D01*
X110773033Y-124471483D02*
X110677795Y-124471483D01*
X110677795Y-124471483D02*
X110582557Y-124423864D01*
X110582557Y-124423864D02*
X110534938Y-124376245D01*
X110534938Y-124376245D02*
X110487319Y-124281007D01*
X110487319Y-124281007D02*
X110487319Y-124042912D01*
X110487319Y-124042912D02*
X110534938Y-123900055D01*
X110487319Y-123566721D02*
X111487319Y-123328626D01*
X111487319Y-123328626D02*
X110773033Y-123138150D01*
X110773033Y-123138150D02*
X111487319Y-122947674D01*
X111487319Y-122947674D02*
X110487319Y-122709579D01*
X110487319Y-121900055D02*
X110487319Y-122090531D01*
X110487319Y-122090531D02*
X110534938Y-122185769D01*
X110534938Y-122185769D02*
X110582557Y-122233388D01*
X110582557Y-122233388D02*
X110725414Y-122328626D01*
X110725414Y-122328626D02*
X110915890Y-122376245D01*
X110915890Y-122376245D02*
X111296842Y-122376245D01*
X111296842Y-122376245D02*
X111392080Y-122328626D01*
X111392080Y-122328626D02*
X111439700Y-122281007D01*
X111439700Y-122281007D02*
X111487319Y-122185769D01*
X111487319Y-122185769D02*
X111487319Y-121995293D01*
X111487319Y-121995293D02*
X111439700Y-121900055D01*
X111439700Y-121900055D02*
X111392080Y-121852436D01*
X111392080Y-121852436D02*
X111296842Y-121804817D01*
X111296842Y-121804817D02*
X111058747Y-121804817D01*
X111058747Y-121804817D02*
X110963509Y-121852436D01*
X110963509Y-121852436D02*
X110915890Y-121900055D01*
X110915890Y-121900055D02*
X110868271Y-121995293D01*
X110868271Y-121995293D02*
X110868271Y-122185769D01*
X110868271Y-122185769D02*
X110915890Y-122281007D01*
X110915890Y-122281007D02*
X110963509Y-122328626D01*
X110963509Y-122328626D02*
X111058747Y-122376245D01*
X76235833Y-87497731D02*
X76188214Y-87545351D01*
X76188214Y-87545351D02*
X76045357Y-87592970D01*
X76045357Y-87592970D02*
X75950119Y-87592970D01*
X75950119Y-87592970D02*
X75807262Y-87545351D01*
X75807262Y-87545351D02*
X75712024Y-87450112D01*
X75712024Y-87450112D02*
X75664405Y-87354874D01*
X75664405Y-87354874D02*
X75616786Y-87164398D01*
X75616786Y-87164398D02*
X75616786Y-87021541D01*
X75616786Y-87021541D02*
X75664405Y-86831065D01*
X75664405Y-86831065D02*
X75712024Y-86735827D01*
X75712024Y-86735827D02*
X75807262Y-86640589D01*
X75807262Y-86640589D02*
X75950119Y-86592970D01*
X75950119Y-86592970D02*
X76045357Y-86592970D01*
X76045357Y-86592970D02*
X76188214Y-86640589D01*
X76188214Y-86640589D02*
X76235833Y-86688208D01*
X77092976Y-86926303D02*
X77092976Y-87592970D01*
X76854881Y-86545351D02*
X76616786Y-87259636D01*
X76616786Y-87259636D02*
X77235833Y-87259636D01*
X105185833Y-132997731D02*
X105138214Y-133045351D01*
X105138214Y-133045351D02*
X104995357Y-133092970D01*
X104995357Y-133092970D02*
X104900119Y-133092970D01*
X104900119Y-133092970D02*
X104757262Y-133045351D01*
X104757262Y-133045351D02*
X104662024Y-132950112D01*
X104662024Y-132950112D02*
X104614405Y-132854874D01*
X104614405Y-132854874D02*
X104566786Y-132664398D01*
X104566786Y-132664398D02*
X104566786Y-132521541D01*
X104566786Y-132521541D02*
X104614405Y-132331065D01*
X104614405Y-132331065D02*
X104662024Y-132235827D01*
X104662024Y-132235827D02*
X104757262Y-132140589D01*
X104757262Y-132140589D02*
X104900119Y-132092970D01*
X104900119Y-132092970D02*
X104995357Y-132092970D01*
X104995357Y-132092970D02*
X105138214Y-132140589D01*
X105138214Y-132140589D02*
X105185833Y-132188208D01*
X106042976Y-132092970D02*
X105852500Y-132092970D01*
X105852500Y-132092970D02*
X105757262Y-132140589D01*
X105757262Y-132140589D02*
X105709643Y-132188208D01*
X105709643Y-132188208D02*
X105614405Y-132331065D01*
X105614405Y-132331065D02*
X105566786Y-132521541D01*
X105566786Y-132521541D02*
X105566786Y-132902493D01*
X105566786Y-132902493D02*
X105614405Y-132997731D01*
X105614405Y-132997731D02*
X105662024Y-133045351D01*
X105662024Y-133045351D02*
X105757262Y-133092970D01*
X105757262Y-133092970D02*
X105947738Y-133092970D01*
X105947738Y-133092970D02*
X106042976Y-133045351D01*
X106042976Y-133045351D02*
X106090595Y-132997731D01*
X106090595Y-132997731D02*
X106138214Y-132902493D01*
X106138214Y-132902493D02*
X106138214Y-132664398D01*
X106138214Y-132664398D02*
X106090595Y-132569160D01*
X106090595Y-132569160D02*
X106042976Y-132521541D01*
X106042976Y-132521541D02*
X105947738Y-132473922D01*
X105947738Y-132473922D02*
X105757262Y-132473922D01*
X105757262Y-132473922D02*
X105662024Y-132521541D01*
X105662024Y-132521541D02*
X105614405Y-132569160D01*
X105614405Y-132569160D02*
X105566786Y-132664398D01*
X124509405Y-110752970D02*
X124509405Y-109752970D01*
X124509405Y-109752970D02*
X124747500Y-109752970D01*
X124747500Y-109752970D02*
X124890357Y-109800589D01*
X124890357Y-109800589D02*
X124985595Y-109895827D01*
X124985595Y-109895827D02*
X125033214Y-109991065D01*
X125033214Y-109991065D02*
X125080833Y-110181541D01*
X125080833Y-110181541D02*
X125080833Y-110324398D01*
X125080833Y-110324398D02*
X125033214Y-110514874D01*
X125033214Y-110514874D02*
X124985595Y-110610112D01*
X124985595Y-110610112D02*
X124890357Y-110705351D01*
X124890357Y-110705351D02*
X124747500Y-110752970D01*
X124747500Y-110752970D02*
X124509405Y-110752970D01*
X125937976Y-110086303D02*
X125937976Y-110752970D01*
X125699881Y-109705351D02*
X125461786Y-110419636D01*
X125461786Y-110419636D02*
X126080833Y-110419636D01*
X96769167Y-100835351D02*
X96912024Y-100882970D01*
X96912024Y-100882970D02*
X97150119Y-100882970D01*
X97150119Y-100882970D02*
X97245357Y-100835351D01*
X97245357Y-100835351D02*
X97292976Y-100787731D01*
X97292976Y-100787731D02*
X97340595Y-100692493D01*
X97340595Y-100692493D02*
X97340595Y-100597255D01*
X97340595Y-100597255D02*
X97292976Y-100502017D01*
X97292976Y-100502017D02*
X97245357Y-100454398D01*
X97245357Y-100454398D02*
X97150119Y-100406779D01*
X97150119Y-100406779D02*
X96959643Y-100359160D01*
X96959643Y-100359160D02*
X96864405Y-100311541D01*
X96864405Y-100311541D02*
X96816786Y-100263922D01*
X96816786Y-100263922D02*
X96769167Y-100168684D01*
X96769167Y-100168684D02*
X96769167Y-100073446D01*
X96769167Y-100073446D02*
X96816786Y-99978208D01*
X96816786Y-99978208D02*
X96864405Y-99930589D01*
X96864405Y-99930589D02*
X96959643Y-99882970D01*
X96959643Y-99882970D02*
X97197738Y-99882970D01*
X97197738Y-99882970D02*
X97340595Y-99930589D01*
X97673929Y-99882970D02*
X97912024Y-100882970D01*
X97912024Y-100882970D02*
X98102500Y-100168684D01*
X98102500Y-100168684D02*
X98292976Y-100882970D01*
X98292976Y-100882970D02*
X98531072Y-99882970D01*
X98816786Y-99882970D02*
X99483452Y-99882970D01*
X99483452Y-99882970D02*
X99054881Y-100882970D01*
X118054405Y-106942970D02*
X118054405Y-105942970D01*
X118054405Y-105942970D02*
X118292500Y-105942970D01*
X118292500Y-105942970D02*
X118435357Y-105990589D01*
X118435357Y-105990589D02*
X118530595Y-106085827D01*
X118530595Y-106085827D02*
X118578214Y-106181065D01*
X118578214Y-106181065D02*
X118625833Y-106371541D01*
X118625833Y-106371541D02*
X118625833Y-106514398D01*
X118625833Y-106514398D02*
X118578214Y-106704874D01*
X118578214Y-106704874D02*
X118530595Y-106800112D01*
X118530595Y-106800112D02*
X118435357Y-106895351D01*
X118435357Y-106895351D02*
X118292500Y-106942970D01*
X118292500Y-106942970D02*
X118054405Y-106942970D01*
X119578214Y-106942970D02*
X119006786Y-106942970D01*
X119292500Y-106942970D02*
X119292500Y-105942970D01*
X119292500Y-105942970D02*
X119197262Y-106085827D01*
X119197262Y-106085827D02*
X119102024Y-106181065D01*
X119102024Y-106181065D02*
X119006786Y-106228684D01*
X104362080Y-106124817D02*
X104409700Y-106172436D01*
X104409700Y-106172436D02*
X104457319Y-106315293D01*
X104457319Y-106315293D02*
X104457319Y-106410531D01*
X104457319Y-106410531D02*
X104409700Y-106553388D01*
X104409700Y-106553388D02*
X104314461Y-106648626D01*
X104314461Y-106648626D02*
X104219223Y-106696245D01*
X104219223Y-106696245D02*
X104028747Y-106743864D01*
X104028747Y-106743864D02*
X103885890Y-106743864D01*
X103885890Y-106743864D02*
X103695414Y-106696245D01*
X103695414Y-106696245D02*
X103600176Y-106648626D01*
X103600176Y-106648626D02*
X103504938Y-106553388D01*
X103504938Y-106553388D02*
X103457319Y-106410531D01*
X103457319Y-106410531D02*
X103457319Y-106315293D01*
X103457319Y-106315293D02*
X103504938Y-106172436D01*
X103504938Y-106172436D02*
X103552557Y-106124817D01*
X103457319Y-105791483D02*
X103457319Y-105124817D01*
X103457319Y-105124817D02*
X104457319Y-105553388D01*
X112605833Y-118032970D02*
X112272500Y-117556779D01*
X112034405Y-118032970D02*
X112034405Y-117032970D01*
X112034405Y-117032970D02*
X112415357Y-117032970D01*
X112415357Y-117032970D02*
X112510595Y-117080589D01*
X112510595Y-117080589D02*
X112558214Y-117128208D01*
X112558214Y-117128208D02*
X112605833Y-117223446D01*
X112605833Y-117223446D02*
X112605833Y-117366303D01*
X112605833Y-117366303D02*
X112558214Y-117461541D01*
X112558214Y-117461541D02*
X112510595Y-117509160D01*
X112510595Y-117509160D02*
X112415357Y-117556779D01*
X112415357Y-117556779D02*
X112034405Y-117556779D01*
X113510595Y-117032970D02*
X113034405Y-117032970D01*
X113034405Y-117032970D02*
X112986786Y-117509160D01*
X112986786Y-117509160D02*
X113034405Y-117461541D01*
X113034405Y-117461541D02*
X113129643Y-117413922D01*
X113129643Y-117413922D02*
X113367738Y-117413922D01*
X113367738Y-117413922D02*
X113462976Y-117461541D01*
X113462976Y-117461541D02*
X113510595Y-117509160D01*
X113510595Y-117509160D02*
X113558214Y-117604398D01*
X113558214Y-117604398D02*
X113558214Y-117842493D01*
X113558214Y-117842493D02*
X113510595Y-117937731D01*
X113510595Y-117937731D02*
X113462976Y-117985351D01*
X113462976Y-117985351D02*
X113367738Y-118032970D01*
X113367738Y-118032970D02*
X113129643Y-118032970D01*
X113129643Y-118032970D02*
X113034405Y-117985351D01*
X113034405Y-117985351D02*
X112986786Y-117937731D01*
X111439700Y-106671483D02*
X111487319Y-106528626D01*
X111487319Y-106528626D02*
X111487319Y-106290531D01*
X111487319Y-106290531D02*
X111439700Y-106195293D01*
X111439700Y-106195293D02*
X111392080Y-106147674D01*
X111392080Y-106147674D02*
X111296842Y-106100055D01*
X111296842Y-106100055D02*
X111201604Y-106100055D01*
X111201604Y-106100055D02*
X111106366Y-106147674D01*
X111106366Y-106147674D02*
X111058747Y-106195293D01*
X111058747Y-106195293D02*
X111011128Y-106290531D01*
X111011128Y-106290531D02*
X110963509Y-106481007D01*
X110963509Y-106481007D02*
X110915890Y-106576245D01*
X110915890Y-106576245D02*
X110868271Y-106623864D01*
X110868271Y-106623864D02*
X110773033Y-106671483D01*
X110773033Y-106671483D02*
X110677795Y-106671483D01*
X110677795Y-106671483D02*
X110582557Y-106623864D01*
X110582557Y-106623864D02*
X110534938Y-106576245D01*
X110534938Y-106576245D02*
X110487319Y-106481007D01*
X110487319Y-106481007D02*
X110487319Y-106242912D01*
X110487319Y-106242912D02*
X110534938Y-106100055D01*
X110487319Y-105766721D02*
X111487319Y-105528626D01*
X111487319Y-105528626D02*
X110773033Y-105338150D01*
X110773033Y-105338150D02*
X111487319Y-105147674D01*
X111487319Y-105147674D02*
X110487319Y-104909579D01*
X111487319Y-104004817D02*
X111487319Y-104576245D01*
X111487319Y-104290531D02*
X110487319Y-104290531D01*
X110487319Y-104290531D02*
X110630176Y-104385769D01*
X110630176Y-104385769D02*
X110725414Y-104481007D01*
X110725414Y-104481007D02*
X110773033Y-104576245D01*
X111434700Y-120886483D02*
X111482319Y-120743626D01*
X111482319Y-120743626D02*
X111482319Y-120505531D01*
X111482319Y-120505531D02*
X111434700Y-120410293D01*
X111434700Y-120410293D02*
X111387080Y-120362674D01*
X111387080Y-120362674D02*
X111291842Y-120315055D01*
X111291842Y-120315055D02*
X111196604Y-120315055D01*
X111196604Y-120315055D02*
X111101366Y-120362674D01*
X111101366Y-120362674D02*
X111053747Y-120410293D01*
X111053747Y-120410293D02*
X111006128Y-120505531D01*
X111006128Y-120505531D02*
X110958509Y-120696007D01*
X110958509Y-120696007D02*
X110910890Y-120791245D01*
X110910890Y-120791245D02*
X110863271Y-120838864D01*
X110863271Y-120838864D02*
X110768033Y-120886483D01*
X110768033Y-120886483D02*
X110672795Y-120886483D01*
X110672795Y-120886483D02*
X110577557Y-120838864D01*
X110577557Y-120838864D02*
X110529938Y-120791245D01*
X110529938Y-120791245D02*
X110482319Y-120696007D01*
X110482319Y-120696007D02*
X110482319Y-120457912D01*
X110482319Y-120457912D02*
X110529938Y-120315055D01*
X110482319Y-119981721D02*
X111482319Y-119743626D01*
X111482319Y-119743626D02*
X110768033Y-119553150D01*
X110768033Y-119553150D02*
X111482319Y-119362674D01*
X111482319Y-119362674D02*
X110482319Y-119124579D01*
X110482319Y-118267436D02*
X110482319Y-118743626D01*
X110482319Y-118743626D02*
X110958509Y-118791245D01*
X110958509Y-118791245D02*
X110910890Y-118743626D01*
X110910890Y-118743626D02*
X110863271Y-118648388D01*
X110863271Y-118648388D02*
X110863271Y-118410293D01*
X110863271Y-118410293D02*
X110910890Y-118315055D01*
X110910890Y-118315055D02*
X110958509Y-118267436D01*
X110958509Y-118267436D02*
X111053747Y-118219817D01*
X111053747Y-118219817D02*
X111291842Y-118219817D01*
X111291842Y-118219817D02*
X111387080Y-118267436D01*
X111387080Y-118267436D02*
X111434700Y-118315055D01*
X111434700Y-118315055D02*
X111482319Y-118410293D01*
X111482319Y-118410293D02*
X111482319Y-118648388D01*
X111482319Y-118648388D02*
X111434700Y-118743626D01*
X111434700Y-118743626D02*
X111387080Y-118791245D01*
X111439700Y-110221483D02*
X111487319Y-110078626D01*
X111487319Y-110078626D02*
X111487319Y-109840531D01*
X111487319Y-109840531D02*
X111439700Y-109745293D01*
X111439700Y-109745293D02*
X111392080Y-109697674D01*
X111392080Y-109697674D02*
X111296842Y-109650055D01*
X111296842Y-109650055D02*
X111201604Y-109650055D01*
X111201604Y-109650055D02*
X111106366Y-109697674D01*
X111106366Y-109697674D02*
X111058747Y-109745293D01*
X111058747Y-109745293D02*
X111011128Y-109840531D01*
X111011128Y-109840531D02*
X110963509Y-110031007D01*
X110963509Y-110031007D02*
X110915890Y-110126245D01*
X110915890Y-110126245D02*
X110868271Y-110173864D01*
X110868271Y-110173864D02*
X110773033Y-110221483D01*
X110773033Y-110221483D02*
X110677795Y-110221483D01*
X110677795Y-110221483D02*
X110582557Y-110173864D01*
X110582557Y-110173864D02*
X110534938Y-110126245D01*
X110534938Y-110126245D02*
X110487319Y-110031007D01*
X110487319Y-110031007D02*
X110487319Y-109792912D01*
X110487319Y-109792912D02*
X110534938Y-109650055D01*
X110487319Y-109316721D02*
X111487319Y-109078626D01*
X111487319Y-109078626D02*
X110773033Y-108888150D01*
X110773033Y-108888150D02*
X111487319Y-108697674D01*
X111487319Y-108697674D02*
X110487319Y-108459579D01*
X110582557Y-108126245D02*
X110534938Y-108078626D01*
X110534938Y-108078626D02*
X110487319Y-107983388D01*
X110487319Y-107983388D02*
X110487319Y-107745293D01*
X110487319Y-107745293D02*
X110534938Y-107650055D01*
X110534938Y-107650055D02*
X110582557Y-107602436D01*
X110582557Y-107602436D02*
X110677795Y-107554817D01*
X110677795Y-107554817D02*
X110773033Y-107554817D01*
X110773033Y-107554817D02*
X110915890Y-107602436D01*
X110915890Y-107602436D02*
X111487319Y-108173864D01*
X111487319Y-108173864D02*
X111487319Y-107554817D01*
X91485833Y-105947731D02*
X91438214Y-105995351D01*
X91438214Y-105995351D02*
X91295357Y-106042970D01*
X91295357Y-106042970D02*
X91200119Y-106042970D01*
X91200119Y-106042970D02*
X91057262Y-105995351D01*
X91057262Y-105995351D02*
X90962024Y-105900112D01*
X90962024Y-105900112D02*
X90914405Y-105804874D01*
X90914405Y-105804874D02*
X90866786Y-105614398D01*
X90866786Y-105614398D02*
X90866786Y-105471541D01*
X90866786Y-105471541D02*
X90914405Y-105281065D01*
X90914405Y-105281065D02*
X90962024Y-105185827D01*
X90962024Y-105185827D02*
X91057262Y-105090589D01*
X91057262Y-105090589D02*
X91200119Y-105042970D01*
X91200119Y-105042970D02*
X91295357Y-105042970D01*
X91295357Y-105042970D02*
X91438214Y-105090589D01*
X91438214Y-105090589D02*
X91485833Y-105138208D01*
X91819167Y-105042970D02*
X92438214Y-105042970D01*
X92438214Y-105042970D02*
X92104881Y-105423922D01*
X92104881Y-105423922D02*
X92247738Y-105423922D01*
X92247738Y-105423922D02*
X92342976Y-105471541D01*
X92342976Y-105471541D02*
X92390595Y-105519160D01*
X92390595Y-105519160D02*
X92438214Y-105614398D01*
X92438214Y-105614398D02*
X92438214Y-105852493D01*
X92438214Y-105852493D02*
X92390595Y-105947731D01*
X92390595Y-105947731D02*
X92342976Y-105995351D01*
X92342976Y-105995351D02*
X92247738Y-106042970D01*
X92247738Y-106042970D02*
X91962024Y-106042970D01*
X91962024Y-106042970D02*
X91866786Y-105995351D01*
X91866786Y-105995351D02*
X91819167Y-105947731D01*
X111439700Y-117321483D02*
X111487319Y-117178626D01*
X111487319Y-117178626D02*
X111487319Y-116940531D01*
X111487319Y-116940531D02*
X111439700Y-116845293D01*
X111439700Y-116845293D02*
X111392080Y-116797674D01*
X111392080Y-116797674D02*
X111296842Y-116750055D01*
X111296842Y-116750055D02*
X111201604Y-116750055D01*
X111201604Y-116750055D02*
X111106366Y-116797674D01*
X111106366Y-116797674D02*
X111058747Y-116845293D01*
X111058747Y-116845293D02*
X111011128Y-116940531D01*
X111011128Y-116940531D02*
X110963509Y-117131007D01*
X110963509Y-117131007D02*
X110915890Y-117226245D01*
X110915890Y-117226245D02*
X110868271Y-117273864D01*
X110868271Y-117273864D02*
X110773033Y-117321483D01*
X110773033Y-117321483D02*
X110677795Y-117321483D01*
X110677795Y-117321483D02*
X110582557Y-117273864D01*
X110582557Y-117273864D02*
X110534938Y-117226245D01*
X110534938Y-117226245D02*
X110487319Y-117131007D01*
X110487319Y-117131007D02*
X110487319Y-116892912D01*
X110487319Y-116892912D02*
X110534938Y-116750055D01*
X110487319Y-116416721D02*
X111487319Y-116178626D01*
X111487319Y-116178626D02*
X110773033Y-115988150D01*
X110773033Y-115988150D02*
X111487319Y-115797674D01*
X111487319Y-115797674D02*
X110487319Y-115559579D01*
X110820652Y-114750055D02*
X111487319Y-114750055D01*
X110439700Y-114988150D02*
X111153985Y-115226245D01*
X111153985Y-115226245D02*
X111153985Y-114607198D01*
X124509405Y-118222970D02*
X124509405Y-117222970D01*
X124509405Y-117222970D02*
X124747500Y-117222970D01*
X124747500Y-117222970D02*
X124890357Y-117270589D01*
X124890357Y-117270589D02*
X124985595Y-117365827D01*
X124985595Y-117365827D02*
X125033214Y-117461065D01*
X125033214Y-117461065D02*
X125080833Y-117651541D01*
X125080833Y-117651541D02*
X125080833Y-117794398D01*
X125080833Y-117794398D02*
X125033214Y-117984874D01*
X125033214Y-117984874D02*
X124985595Y-118080112D01*
X124985595Y-118080112D02*
X124890357Y-118175351D01*
X124890357Y-118175351D02*
X124747500Y-118222970D01*
X124747500Y-118222970D02*
X124509405Y-118222970D01*
X125985595Y-117222970D02*
X125509405Y-117222970D01*
X125509405Y-117222970D02*
X125461786Y-117699160D01*
X125461786Y-117699160D02*
X125509405Y-117651541D01*
X125509405Y-117651541D02*
X125604643Y-117603922D01*
X125604643Y-117603922D02*
X125842738Y-117603922D01*
X125842738Y-117603922D02*
X125937976Y-117651541D01*
X125937976Y-117651541D02*
X125985595Y-117699160D01*
X125985595Y-117699160D02*
X126033214Y-117794398D01*
X126033214Y-117794398D02*
X126033214Y-118032493D01*
X126033214Y-118032493D02*
X125985595Y-118127731D01*
X125985595Y-118127731D02*
X125937976Y-118175351D01*
X125937976Y-118175351D02*
X125842738Y-118222970D01*
X125842738Y-118222970D02*
X125604643Y-118222970D01*
X125604643Y-118222970D02*
X125509405Y-118175351D01*
X125509405Y-118175351D02*
X125461786Y-118127731D01*
X112610833Y-111882970D02*
X112277500Y-111406779D01*
X112039405Y-111882970D02*
X112039405Y-110882970D01*
X112039405Y-110882970D02*
X112420357Y-110882970D01*
X112420357Y-110882970D02*
X112515595Y-110930589D01*
X112515595Y-110930589D02*
X112563214Y-110978208D01*
X112563214Y-110978208D02*
X112610833Y-111073446D01*
X112610833Y-111073446D02*
X112610833Y-111216303D01*
X112610833Y-111216303D02*
X112563214Y-111311541D01*
X112563214Y-111311541D02*
X112515595Y-111359160D01*
X112515595Y-111359160D02*
X112420357Y-111406779D01*
X112420357Y-111406779D02*
X112039405Y-111406779D01*
X113563214Y-111882970D02*
X112991786Y-111882970D01*
X113277500Y-111882970D02*
X113277500Y-110882970D01*
X113277500Y-110882970D02*
X113182262Y-111025827D01*
X113182262Y-111025827D02*
X113087024Y-111121065D01*
X113087024Y-111121065D02*
X112991786Y-111168684D01*
X112610833Y-108832970D02*
X112277500Y-108356779D01*
X112039405Y-108832970D02*
X112039405Y-107832970D01*
X112039405Y-107832970D02*
X112420357Y-107832970D01*
X112420357Y-107832970D02*
X112515595Y-107880589D01*
X112515595Y-107880589D02*
X112563214Y-107928208D01*
X112563214Y-107928208D02*
X112610833Y-108023446D01*
X112610833Y-108023446D02*
X112610833Y-108166303D01*
X112610833Y-108166303D02*
X112563214Y-108261541D01*
X112563214Y-108261541D02*
X112515595Y-108309160D01*
X112515595Y-108309160D02*
X112420357Y-108356779D01*
X112420357Y-108356779D02*
X112039405Y-108356779D01*
X112944167Y-107832970D02*
X113563214Y-107832970D01*
X113563214Y-107832970D02*
X113229881Y-108213922D01*
X113229881Y-108213922D02*
X113372738Y-108213922D01*
X113372738Y-108213922D02*
X113467976Y-108261541D01*
X113467976Y-108261541D02*
X113515595Y-108309160D01*
X113515595Y-108309160D02*
X113563214Y-108404398D01*
X113563214Y-108404398D02*
X113563214Y-108642493D01*
X113563214Y-108642493D02*
X113515595Y-108737731D01*
X113515595Y-108737731D02*
X113467976Y-108785351D01*
X113467976Y-108785351D02*
X113372738Y-108832970D01*
X113372738Y-108832970D02*
X113087024Y-108832970D01*
X113087024Y-108832970D02*
X112991786Y-108785351D01*
X112991786Y-108785351D02*
X112944167Y-108737731D01*
X91485833Y-87497731D02*
X91438214Y-87545351D01*
X91438214Y-87545351D02*
X91295357Y-87592970D01*
X91295357Y-87592970D02*
X91200119Y-87592970D01*
X91200119Y-87592970D02*
X91057262Y-87545351D01*
X91057262Y-87545351D02*
X90962024Y-87450112D01*
X90962024Y-87450112D02*
X90914405Y-87354874D01*
X90914405Y-87354874D02*
X90866786Y-87164398D01*
X90866786Y-87164398D02*
X90866786Y-87021541D01*
X90866786Y-87021541D02*
X90914405Y-86831065D01*
X90914405Y-86831065D02*
X90962024Y-86735827D01*
X90962024Y-86735827D02*
X91057262Y-86640589D01*
X91057262Y-86640589D02*
X91200119Y-86592970D01*
X91200119Y-86592970D02*
X91295357Y-86592970D01*
X91295357Y-86592970D02*
X91438214Y-86640589D01*
X91438214Y-86640589D02*
X91485833Y-86688208D01*
X92390595Y-86592970D02*
X91914405Y-86592970D01*
X91914405Y-86592970D02*
X91866786Y-87069160D01*
X91866786Y-87069160D02*
X91914405Y-87021541D01*
X91914405Y-87021541D02*
X92009643Y-86973922D01*
X92009643Y-86973922D02*
X92247738Y-86973922D01*
X92247738Y-86973922D02*
X92342976Y-87021541D01*
X92342976Y-87021541D02*
X92390595Y-87069160D01*
X92390595Y-87069160D02*
X92438214Y-87164398D01*
X92438214Y-87164398D02*
X92438214Y-87402493D01*
X92438214Y-87402493D02*
X92390595Y-87497731D01*
X92390595Y-87497731D02*
X92342976Y-87545351D01*
X92342976Y-87545351D02*
X92247738Y-87592970D01*
X92247738Y-87592970D02*
X92009643Y-87592970D01*
X92009643Y-87592970D02*
X91914405Y-87545351D01*
X91914405Y-87545351D02*
X91866786Y-87497731D01*
X124509405Y-103282970D02*
X124509405Y-102282970D01*
X124509405Y-102282970D02*
X124747500Y-102282970D01*
X124747500Y-102282970D02*
X124890357Y-102330589D01*
X124890357Y-102330589D02*
X124985595Y-102425827D01*
X124985595Y-102425827D02*
X125033214Y-102521065D01*
X125033214Y-102521065D02*
X125080833Y-102711541D01*
X125080833Y-102711541D02*
X125080833Y-102854398D01*
X125080833Y-102854398D02*
X125033214Y-103044874D01*
X125033214Y-103044874D02*
X124985595Y-103140112D01*
X124985595Y-103140112D02*
X124890357Y-103235351D01*
X124890357Y-103235351D02*
X124747500Y-103282970D01*
X124747500Y-103282970D02*
X124509405Y-103282970D01*
X125414167Y-102282970D02*
X126033214Y-102282970D01*
X126033214Y-102282970D02*
X125699881Y-102663922D01*
X125699881Y-102663922D02*
X125842738Y-102663922D01*
X125842738Y-102663922D02*
X125937976Y-102711541D01*
X125937976Y-102711541D02*
X125985595Y-102759160D01*
X125985595Y-102759160D02*
X126033214Y-102854398D01*
X126033214Y-102854398D02*
X126033214Y-103092493D01*
X126033214Y-103092493D02*
X125985595Y-103187731D01*
X125985595Y-103187731D02*
X125937976Y-103235351D01*
X125937976Y-103235351D02*
X125842738Y-103282970D01*
X125842738Y-103282970D02*
X125557024Y-103282970D01*
X125557024Y-103282970D02*
X125461786Y-103235351D01*
X125461786Y-103235351D02*
X125414167Y-103187731D01*
D11*
X113042976Y-77865570D02*
X113042976Y-76865570D01*
X113042976Y-76865570D02*
X113376309Y-77579855D01*
X113376309Y-77579855D02*
X113709642Y-76865570D01*
X113709642Y-76865570D02*
X113709642Y-77865570D01*
X114757261Y-77770331D02*
X114709642Y-77817951D01*
X114709642Y-77817951D02*
X114566785Y-77865570D01*
X114566785Y-77865570D02*
X114471547Y-77865570D01*
X114471547Y-77865570D02*
X114328690Y-77817951D01*
X114328690Y-77817951D02*
X114233452Y-77722712D01*
X114233452Y-77722712D02*
X114185833Y-77627474D01*
X114185833Y-77627474D02*
X114138214Y-77436998D01*
X114138214Y-77436998D02*
X114138214Y-77294141D01*
X114138214Y-77294141D02*
X114185833Y-77103665D01*
X114185833Y-77103665D02*
X114233452Y-77008427D01*
X114233452Y-77008427D02*
X114328690Y-76913189D01*
X114328690Y-76913189D02*
X114471547Y-76865570D01*
X114471547Y-76865570D02*
X114566785Y-76865570D01*
X114566785Y-76865570D02*
X114709642Y-76913189D01*
X114709642Y-76913189D02*
X114757261Y-76960808D01*
X115138214Y-76960808D02*
X115185833Y-76913189D01*
X115185833Y-76913189D02*
X115281071Y-76865570D01*
X115281071Y-76865570D02*
X115519166Y-76865570D01*
X115519166Y-76865570D02*
X115614404Y-76913189D01*
X115614404Y-76913189D02*
X115662023Y-76960808D01*
X115662023Y-76960808D02*
X115709642Y-77056046D01*
X115709642Y-77056046D02*
X115709642Y-77151284D01*
X115709642Y-77151284D02*
X115662023Y-77294141D01*
X115662023Y-77294141D02*
X115090595Y-77865570D01*
X115090595Y-77865570D02*
X115709642Y-77865570D01*
%TO.C,T2*%
D12*
X92992500Y-108938151D02*
G75*
G02*
X92792500Y-108938151I-100000J0D01*
G01*
X92792500Y-108938151D02*
G75*
G02*
X92992500Y-108938151I100000J0D01*
G01*
D13*
X94162500Y-124758151D02*
X73842500Y-124758151D01*
X94162500Y-109518151D02*
X94162500Y-124758151D01*
X73842500Y-124758151D02*
X73842500Y-109518151D01*
X73842500Y-109518151D02*
X94162500Y-109518151D01*
%TO.C,R2*%
D14*
X115422500Y-112108151D02*
G75*
G02*
X112682500Y-112108151I-1370000J0D01*
G01*
X112682500Y-112108151D02*
G75*
G02*
X115422500Y-112108151I1370000J0D01*
G01*
X112682500Y-112108151D02*
X112612500Y-112108151D01*
%TO.C,B1*%
X102932500Y-112748151D02*
X102932500Y-120428151D01*
X102932500Y-110148151D02*
X102932500Y-111478151D01*
X101602500Y-110148151D02*
X102932500Y-110148151D01*
X100272500Y-120428151D02*
X102932500Y-120428151D01*
X100272500Y-112748151D02*
X102932500Y-112748151D01*
X100272500Y-112748151D02*
X100272500Y-120428151D01*
%TO.C,J2*%
X91928672Y-83683237D02*
X91928672Y-68163237D01*
X91928672Y-83683237D02*
X73968672Y-83683237D01*
X91928672Y-68163237D02*
X73968672Y-68163237D01*
X88548672Y-67478237D02*
X87548672Y-67478237D01*
X88048672Y-67978237D02*
X88548672Y-67478237D01*
X87548672Y-67478237D02*
X88048672Y-67978237D01*
X73968672Y-68163237D02*
X73968672Y-83683237D01*
%TO.C,C2*%
X78222500Y-109058151D02*
X74582500Y-109058151D01*
X78222500Y-108758151D02*
X78222500Y-109058151D01*
X78222500Y-106718151D02*
X78222500Y-107018151D01*
X74582500Y-109058151D02*
X74582500Y-108758151D01*
X74582500Y-107018151D02*
X74582500Y-106718151D01*
X74582500Y-106718151D02*
X78222500Y-106718151D01*
%TO.C,J3*%
X91882500Y-141023151D02*
X91882500Y-125503151D01*
X91882500Y-141023151D02*
X73922500Y-141023151D01*
X91882500Y-125503151D02*
X73922500Y-125503151D01*
X88502500Y-124818151D02*
X87502500Y-124818151D01*
X88002500Y-125318151D02*
X88502500Y-124818151D01*
X87502500Y-124818151D02*
X88002500Y-125318151D01*
X73922500Y-125503151D02*
X73922500Y-141023151D01*
%TO.C,T1*%
D13*
X73872500Y-91018151D02*
X94192500Y-91018151D01*
X73872500Y-106258151D02*
X73872500Y-91018151D01*
X94192500Y-91018151D02*
X94192500Y-106258151D01*
X94192500Y-106258151D02*
X73872500Y-106258151D01*
D12*
X93022500Y-90438151D02*
G75*
G02*
X92822500Y-90438151I-100000J0D01*
G01*
X92822500Y-90438151D02*
G75*
G02*
X93022500Y-90438151I100000J0D01*
G01*
%TO.C,P1*%
D14*
X96722500Y-112838151D02*
X96722500Y-107698151D01*
X96722500Y-115438151D02*
X96722500Y-114108151D01*
X98052500Y-115438151D02*
X96722500Y-115438151D01*
X99382500Y-107698151D02*
X96722500Y-107698151D01*
X99382500Y-112838151D02*
X96722500Y-112838151D01*
X99382500Y-112838151D02*
X99382500Y-107698151D01*
%TO.C,C1*%
X102322500Y-127238151D02*
G75*
G02*
X94082500Y-127238151I-4120000J0D01*
G01*
X94082500Y-127238151D02*
G75*
G02*
X102322500Y-127238151I4120000J0D01*
G01*
X102282500Y-126705151D02*
X102282500Y-127771151D01*
X102242500Y-126470151D02*
X102242500Y-128006151D01*
X102202500Y-126291151D02*
X102202500Y-128185151D01*
X102162500Y-126141151D02*
X102162500Y-128335151D01*
X102122500Y-126010151D02*
X102122500Y-128466151D01*
X102082500Y-125892151D02*
X102082500Y-128584151D01*
X102042500Y-125785151D02*
X102042500Y-128691151D01*
X102002500Y-125686151D02*
X102002500Y-128790151D01*
X101962500Y-125594151D02*
X101962500Y-128882151D01*
X101922500Y-125507151D02*
X101922500Y-128969151D01*
X101882500Y-125425151D02*
X101882500Y-129051151D01*
X101842500Y-125348151D02*
X101842500Y-129128151D01*
X101802500Y-125274151D02*
X101802500Y-129202151D01*
X101762500Y-125204151D02*
X101762500Y-129272151D01*
X101722500Y-128278151D02*
X101722500Y-129339151D01*
X101722500Y-125137151D02*
X101722500Y-126198151D01*
X101682500Y-128278151D02*
X101682500Y-129403151D01*
X101682500Y-125073151D02*
X101682500Y-126198151D01*
X101642500Y-128278151D02*
X101642500Y-129465151D01*
X101642500Y-125011151D02*
X101642500Y-126198151D01*
X101602500Y-128278151D02*
X101602500Y-129525151D01*
X101602500Y-124951151D02*
X101602500Y-126198151D01*
X101562500Y-128278151D02*
X101562500Y-129582151D01*
X101562500Y-124894151D02*
X101562500Y-126198151D01*
X101522500Y-128278151D02*
X101522500Y-129638151D01*
X101522500Y-124838151D02*
X101522500Y-126198151D01*
X101482500Y-128278151D02*
X101482500Y-129691151D01*
X101482500Y-124785151D02*
X101482500Y-126198151D01*
X101442500Y-128278151D02*
X101442500Y-129743151D01*
X101442500Y-124733151D02*
X101442500Y-126198151D01*
X101402500Y-128278151D02*
X101402500Y-129793151D01*
X101402500Y-124683151D02*
X101402500Y-126198151D01*
X101362500Y-128278151D02*
X101362500Y-129842151D01*
X101362500Y-124634151D02*
X101362500Y-126198151D01*
X101322500Y-128278151D02*
X101322500Y-129889151D01*
X101322500Y-124587151D02*
X101322500Y-126198151D01*
X101282500Y-128278151D02*
X101282500Y-129934151D01*
X101282500Y-124542151D02*
X101282500Y-126198151D01*
X101242500Y-128278151D02*
X101242500Y-129979151D01*
X101242500Y-124497151D02*
X101242500Y-126198151D01*
X101202500Y-128278151D02*
X101202500Y-130022151D01*
X101202500Y-124454151D02*
X101202500Y-126198151D01*
X101162500Y-128278151D02*
X101162500Y-130064151D01*
X101162500Y-124412151D02*
X101162500Y-126198151D01*
X101122500Y-128278151D02*
X101122500Y-130105151D01*
X101122500Y-124371151D02*
X101122500Y-126198151D01*
X101082500Y-128278151D02*
X101082500Y-130144151D01*
X101082500Y-124332151D02*
X101082500Y-126198151D01*
X101042500Y-128278151D02*
X101042500Y-130183151D01*
X101042500Y-124293151D02*
X101042500Y-126198151D01*
X101002500Y-128278151D02*
X101002500Y-130220151D01*
X101002500Y-124256151D02*
X101002500Y-126198151D01*
X100962500Y-128278151D02*
X100962500Y-130257151D01*
X100962500Y-124219151D02*
X100962500Y-126198151D01*
X100922500Y-128278151D02*
X100922500Y-130293151D01*
X100922500Y-124183151D02*
X100922500Y-126198151D01*
X100882500Y-128278151D02*
X100882500Y-130327151D01*
X100882500Y-124149151D02*
X100882500Y-126198151D01*
X100842500Y-128278151D02*
X100842500Y-130361151D01*
X100842500Y-124115151D02*
X100842500Y-126198151D01*
X100802500Y-128278151D02*
X100802500Y-130394151D01*
X100802500Y-124082151D02*
X100802500Y-126198151D01*
X100762500Y-128278151D02*
X100762500Y-130426151D01*
X100762500Y-124050151D02*
X100762500Y-126198151D01*
X100722500Y-128278151D02*
X100722500Y-130457151D01*
X100722500Y-124019151D02*
X100722500Y-126198151D01*
X100682500Y-128278151D02*
X100682500Y-130488151D01*
X100682500Y-123988151D02*
X100682500Y-126198151D01*
X100642500Y-128278151D02*
X100642500Y-130518151D01*
X100642500Y-123958151D02*
X100642500Y-126198151D01*
X100602500Y-128278151D02*
X100602500Y-130547151D01*
X100602500Y-123929151D02*
X100602500Y-126198151D01*
X100562500Y-128278151D02*
X100562500Y-130575151D01*
X100562500Y-123901151D02*
X100562500Y-126198151D01*
X100522500Y-128278151D02*
X100522500Y-130603151D01*
X100522500Y-123873151D02*
X100522500Y-126198151D01*
X100482500Y-128278151D02*
X100482500Y-130630151D01*
X100482500Y-123846151D02*
X100482500Y-126198151D01*
X100442500Y-128278151D02*
X100442500Y-130656151D01*
X100442500Y-123820151D02*
X100442500Y-126198151D01*
X100402500Y-128278151D02*
X100402500Y-130681151D01*
X100402500Y-123795151D02*
X100402500Y-126198151D01*
X100362500Y-128278151D02*
X100362500Y-130706151D01*
X100362500Y-123770151D02*
X100362500Y-126198151D01*
X100322500Y-128278151D02*
X100322500Y-130731151D01*
X100322500Y-123745151D02*
X100322500Y-126198151D01*
X100282500Y-128278151D02*
X100282500Y-130754151D01*
X100282500Y-123722151D02*
X100282500Y-126198151D01*
X100242500Y-128278151D02*
X100242500Y-130777151D01*
X100242500Y-123699151D02*
X100242500Y-126198151D01*
X100202500Y-128278151D02*
X100202500Y-130800151D01*
X100202500Y-123676151D02*
X100202500Y-126198151D01*
X100162500Y-128278151D02*
X100162500Y-130822151D01*
X100162500Y-123654151D02*
X100162500Y-126198151D01*
X100122500Y-128278151D02*
X100122500Y-130843151D01*
X100122500Y-123633151D02*
X100122500Y-126198151D01*
X100082500Y-128278151D02*
X100082500Y-130864151D01*
X100082500Y-123612151D02*
X100082500Y-126198151D01*
X100042500Y-128278151D02*
X100042500Y-130884151D01*
X100042500Y-123592151D02*
X100042500Y-126198151D01*
X100002500Y-128278151D02*
X100002500Y-130904151D01*
X100002500Y-123572151D02*
X100002500Y-126198151D01*
X99962500Y-128278151D02*
X99962500Y-130923151D01*
X99962500Y-123553151D02*
X99962500Y-126198151D01*
X99922500Y-128278151D02*
X99922500Y-130942151D01*
X99922500Y-123534151D02*
X99922500Y-126198151D01*
X99882500Y-128278151D02*
X99882500Y-130960151D01*
X99882500Y-123516151D02*
X99882500Y-126198151D01*
X99842500Y-128278151D02*
X99842500Y-130978151D01*
X99842500Y-123498151D02*
X99842500Y-126198151D01*
X99802500Y-128278151D02*
X99802500Y-130995151D01*
X99802500Y-123481151D02*
X99802500Y-126198151D01*
X99762500Y-128278151D02*
X99762500Y-131011151D01*
X99762500Y-123465151D02*
X99762500Y-126198151D01*
X99722500Y-128278151D02*
X99722500Y-131027151D01*
X99722500Y-123449151D02*
X99722500Y-126198151D01*
X99682500Y-128278151D02*
X99682500Y-131043151D01*
X99682500Y-123433151D02*
X99682500Y-126198151D01*
X99642500Y-123418151D02*
X99642500Y-131058151D01*
X99602500Y-123403151D02*
X99602500Y-131073151D01*
X99562500Y-123389151D02*
X99562500Y-131087151D01*
X99522500Y-123375151D02*
X99522500Y-131101151D01*
X99482500Y-123362151D02*
X99482500Y-131114151D01*
X99442500Y-123349151D02*
X99442500Y-131127151D01*
X99402500Y-123337151D02*
X99402500Y-131139151D01*
X99362500Y-123325151D02*
X99362500Y-131151151D01*
X99322500Y-123313151D02*
X99322500Y-131163151D01*
X99282500Y-123302151D02*
X99282500Y-131174151D01*
X99242500Y-123291151D02*
X99242500Y-131185151D01*
X99202500Y-123281151D02*
X99202500Y-131195151D01*
X99162500Y-123271151D02*
X99162500Y-131205151D01*
X99122500Y-123262151D02*
X99122500Y-131214151D01*
X99082500Y-123253151D02*
X99082500Y-131223151D01*
X99042500Y-123245151D02*
X99042500Y-131231151D01*
X99002500Y-123236151D02*
X99002500Y-131240151D01*
X98962500Y-123229151D02*
X98962500Y-131247151D01*
X98922500Y-123221151D02*
X98922500Y-131255151D01*
X98882500Y-123215151D02*
X98882500Y-131261151D01*
X98842500Y-123208151D02*
X98842500Y-131268151D01*
X98802500Y-123202151D02*
X98802500Y-131274151D01*
X98762500Y-123196151D02*
X98762500Y-131280151D01*
X98722500Y-123191151D02*
X98722500Y-131285151D01*
X98682500Y-123186151D02*
X98682500Y-131290151D01*
X98642500Y-123182151D02*
X98642500Y-131294151D01*
X98602500Y-123177151D02*
X98602500Y-131299151D01*
X98562500Y-123174151D02*
X98562500Y-131302151D01*
X98522500Y-123170151D02*
X98522500Y-131306151D01*
X98482500Y-123168151D02*
X98482500Y-131308151D01*
X98442500Y-123165151D02*
X98442500Y-131311151D01*
X98402500Y-123163151D02*
X98402500Y-131313151D01*
X98362500Y-123161151D02*
X98362500Y-131315151D01*
X98322500Y-123160151D02*
X98322500Y-131316151D01*
X98282500Y-123159151D02*
X98282500Y-131317151D01*
X98242500Y-123158151D02*
X98242500Y-131318151D01*
X98202500Y-123158151D02*
X98202500Y-131318151D01*
X94192802Y-124523151D02*
X94192802Y-125323151D01*
X93792802Y-124923151D02*
X94592802Y-124923151D01*
%TO.C,SW3*%
X104732500Y-111058151D02*
X104732500Y-113818151D01*
X107382500Y-111058151D02*
X104732500Y-111058151D01*
X107382500Y-111058151D02*
X107382500Y-113818151D01*
X107382500Y-113818151D02*
X104732500Y-113818151D01*
X108652500Y-111058151D02*
X110032500Y-111058151D01*
X110032500Y-111058151D02*
X110032500Y-112438151D01*
%TO.C,R4*%
X115412500Y-118208151D02*
G75*
G02*
X112672500Y-118208151I-1370000J0D01*
G01*
X112672500Y-118208151D02*
G75*
G02*
X115412500Y-118208151I1370000J0D01*
G01*
X112672500Y-118208151D02*
X112602500Y-118208151D01*
%TO.C,S1*%
X99582500Y-75718151D02*
X99582500Y-93558151D01*
X99582500Y-73118151D02*
X99582500Y-74448151D01*
X98252500Y-73118151D02*
X99582500Y-73118151D01*
X96922500Y-93558151D02*
X99582500Y-93558151D01*
X96922500Y-75718151D02*
X99582500Y-75718151D01*
X96922500Y-75718151D02*
X96922500Y-93558151D01*
%TO.C,J1*%
X91928672Y-67301190D02*
X91928672Y-51781190D01*
X91928672Y-67301190D02*
X73968672Y-67301190D01*
X91928672Y-51781190D02*
X73968672Y-51781190D01*
X88548672Y-51096190D02*
X87548672Y-51096190D01*
X88048672Y-51596190D02*
X88548672Y-51096190D01*
X87548672Y-51096190D02*
X88048672Y-51596190D01*
X73968672Y-51781190D02*
X73968672Y-67301190D01*
%TO.C,D2*%
X121292500Y-117918151D02*
G75*
G02*
X116292500Y-117918151I-2500000J0D01*
G01*
X116292500Y-117918151D02*
G75*
G02*
X121292500Y-117918151I2500000J0D01*
G01*
X121782500Y-117918151D02*
G75*
G02*
X116232500Y-119462981I-2990000J0D01*
G01*
X116232500Y-116373321D02*
G75*
G02*
X121782500Y-117918151I2560000J-1544830D01*
G01*
X116232500Y-116373151D02*
X116232500Y-119463151D01*
%TO.C,SW6*%
X104732500Y-121758151D02*
X104732500Y-124518151D01*
X107382500Y-121758151D02*
X104732500Y-121758151D01*
X107382500Y-121758151D02*
X107382500Y-124518151D01*
X107382500Y-124518151D02*
X104732500Y-124518151D01*
X108652500Y-121758151D02*
X110032500Y-121758151D01*
X110032500Y-121758151D02*
X110032500Y-123138151D01*
%TO.C,C4*%
X78222500Y-90608151D02*
X74582500Y-90608151D01*
X78222500Y-90308151D02*
X78222500Y-90608151D01*
X78222500Y-88268151D02*
X78222500Y-88568151D01*
X74582500Y-90608151D02*
X74582500Y-90308151D01*
X74582500Y-88568151D02*
X74582500Y-88268151D01*
X74582500Y-88268151D02*
X78222500Y-88268151D01*
%TO.C,C6*%
X107172500Y-131508151D02*
X103532500Y-131508151D01*
X107172500Y-131208151D02*
X107172500Y-131508151D01*
X107172500Y-129168151D02*
X107172500Y-129468151D01*
X103532500Y-131508151D02*
X103532500Y-131208151D01*
X103532500Y-129468151D02*
X103532500Y-129168151D01*
X103532500Y-129168151D02*
X107172500Y-129168151D01*
%TO.C,D4*%
X127747500Y-114258151D02*
G75*
G02*
X122747500Y-114258151I-2500000J0D01*
G01*
X122747500Y-114258151D02*
G75*
G02*
X127747500Y-114258151I2500000J0D01*
G01*
X128237500Y-114258151D02*
G75*
G02*
X122687500Y-115802981I-2990000J0D01*
G01*
X122687500Y-112713321D02*
G75*
G02*
X128237500Y-114258151I2560000J-1544830D01*
G01*
X122687500Y-112713151D02*
X122687500Y-115803151D01*
%TO.C,SW7*%
X96722500Y-101428151D02*
X98102500Y-101428151D01*
X96722500Y-102808151D02*
X96722500Y-101428151D01*
X96722500Y-104078151D02*
X96722500Y-106728151D01*
X96722500Y-104078151D02*
X99482500Y-104078151D01*
X96722500Y-106728151D02*
X99482500Y-106728151D01*
X99482500Y-104078151D02*
X99482500Y-106728151D01*
%TO.C,D1*%
X121292500Y-110448151D02*
G75*
G02*
X116292500Y-110448151I-2500000J0D01*
G01*
X116292500Y-110448151D02*
G75*
G02*
X121292500Y-110448151I2500000J0D01*
G01*
X121782500Y-110448151D02*
G75*
G02*
X116232500Y-111992981I-2990000J0D01*
G01*
X116232500Y-108903321D02*
G75*
G02*
X121782500Y-110448151I2560000J-1544830D01*
G01*
X116232500Y-108903151D02*
X116232500Y-111993151D01*
%TO.C,C7*%
X102872500Y-107778151D02*
X102572500Y-107778151D01*
X102872500Y-104138151D02*
X102872500Y-107778151D01*
X102572500Y-104138151D02*
X102872500Y-104138151D01*
X100832500Y-107778151D02*
X100532500Y-107778151D01*
X100532500Y-107778151D02*
X100532500Y-104138151D01*
X100532500Y-104138151D02*
X100832500Y-104138151D01*
%TO.C,R5*%
X115412500Y-115208151D02*
G75*
G02*
X112672500Y-115208151I-1370000J0D01*
G01*
X112672500Y-115208151D02*
G75*
G02*
X115412500Y-115208151I1370000J0D01*
G01*
X112672500Y-115208151D02*
X112602500Y-115208151D01*
%TO.C,SW1*%
X110032500Y-103958151D02*
X110032500Y-105338151D01*
X108652500Y-103958151D02*
X110032500Y-103958151D01*
X107382500Y-106718151D02*
X104732500Y-106718151D01*
X107382500Y-103958151D02*
X107382500Y-106718151D01*
X107382500Y-103958151D02*
X104732500Y-103958151D01*
X104732500Y-103958151D02*
X104732500Y-106718151D01*
%TO.C,SW5*%
X104727500Y-118173151D02*
X104727500Y-120933151D01*
X107377500Y-118173151D02*
X104727500Y-118173151D01*
X107377500Y-118173151D02*
X107377500Y-120933151D01*
X107377500Y-120933151D02*
X104727500Y-120933151D01*
X108647500Y-118173151D02*
X110027500Y-118173151D01*
X110027500Y-118173151D02*
X110027500Y-119553151D01*
%TO.C,SW2*%
X104732500Y-107508151D02*
X104732500Y-110268151D01*
X107382500Y-107508151D02*
X104732500Y-107508151D01*
X107382500Y-107508151D02*
X107382500Y-110268151D01*
X107382500Y-110268151D02*
X104732500Y-110268151D01*
X108652500Y-107508151D02*
X110032500Y-107508151D01*
X110032500Y-107508151D02*
X110032500Y-108888151D01*
%TO.C,C3*%
X93472500Y-109058151D02*
X89832500Y-109058151D01*
X93472500Y-108758151D02*
X93472500Y-109058151D01*
X93472500Y-106718151D02*
X93472500Y-107018151D01*
X89832500Y-109058151D02*
X89832500Y-108758151D01*
X89832500Y-107018151D02*
X89832500Y-106718151D01*
X89832500Y-106718151D02*
X93472500Y-106718151D01*
%TO.C,U1*%
X128312500Y-137548151D02*
G75*
G02*
X128312500Y-135548151I0J1000000D01*
G01*
X128312500Y-139198151D02*
X128312500Y-137548151D01*
X128312500Y-135548151D02*
X128312500Y-133898151D01*
X128312500Y-133898151D02*
X92632500Y-133898151D01*
X92632500Y-139198151D02*
X128312500Y-139198151D01*
X92632500Y-133898151D02*
X92632500Y-139198151D01*
%TO.C,SW4*%
X104732500Y-114608151D02*
X104732500Y-117368151D01*
X107382500Y-114608151D02*
X104732500Y-114608151D01*
X107382500Y-114608151D02*
X107382500Y-117368151D01*
X107382500Y-117368151D02*
X104732500Y-117368151D01*
X108652500Y-114608151D02*
X110032500Y-114608151D01*
X110032500Y-114608151D02*
X110032500Y-115988151D01*
%TO.C,D5*%
X127747500Y-121728151D02*
G75*
G02*
X122747500Y-121728151I-2500000J0D01*
G01*
X122747500Y-121728151D02*
G75*
G02*
X127747500Y-121728151I2500000J0D01*
G01*
X128237500Y-121728151D02*
G75*
G02*
X122687500Y-123272981I-2990000J0D01*
G01*
X122687500Y-120183321D02*
G75*
G02*
X128237500Y-121728151I2560000J-1544830D01*
G01*
X122687500Y-120183151D02*
X122687500Y-123273151D01*
%TO.C,R1*%
X115417500Y-109058151D02*
G75*
G02*
X112677500Y-109058151I-1370000J0D01*
G01*
X112677500Y-109058151D02*
G75*
G02*
X115417500Y-109058151I1370000J0D01*
G01*
X112677500Y-109058151D02*
X112607500Y-109058151D01*
%TO.C,R3*%
X115417500Y-106008151D02*
G75*
G02*
X112677500Y-106008151I-1370000J0D01*
G01*
X112677500Y-106008151D02*
G75*
G02*
X115417500Y-106008151I1370000J0D01*
G01*
X112677500Y-106008151D02*
X112607500Y-106008151D01*
%TO.C,C5*%
X93472500Y-90608151D02*
X89832500Y-90608151D01*
X93472500Y-90308151D02*
X93472500Y-90608151D01*
X93472500Y-88268151D02*
X93472500Y-88568151D01*
X89832500Y-90608151D02*
X89832500Y-90308151D01*
X89832500Y-88568151D02*
X89832500Y-88268151D01*
X89832500Y-88268151D02*
X93472500Y-88268151D01*
%TO.C,D3*%
X127747500Y-106788151D02*
G75*
G02*
X122747500Y-106788151I-2500000J0D01*
G01*
X122747500Y-106788151D02*
G75*
G02*
X127747500Y-106788151I2500000J0D01*
G01*
X128237500Y-106788151D02*
G75*
G02*
X122687500Y-108332981I-2990000J0D01*
G01*
X122687500Y-105243321D02*
G75*
G02*
X128237500Y-106788151I2560000J-1544830D01*
G01*
X122687500Y-105243151D02*
X122687500Y-108333151D01*
%TO.C,MC2*%
D11*
X109852500Y-50408151D02*
X109852500Y-51408151D01*
X118852500Y-50408151D02*
X109852500Y-50408151D01*
X118852500Y-51408151D02*
X118852500Y-50408151D01*
X100152500Y-51408151D02*
X128552500Y-51408151D01*
X128552500Y-103408151D01*
X100152500Y-103408151D01*
X100152500Y-51408151D01*
%TD*%
M02*
