%TF.GenerationSoftware,KiCad,Pcbnew,10.0.3*%
%TF.CreationDate,2026-06-11T17:52:50+01:00*%
%TF.ProjectId,ASTRA,41535452-412e-46b6-9963-61645f706362,3*%
%TF.SameCoordinates,Original*%
%TF.FileFunction,Soldermask,Bot*%
%TF.FilePolarity,Negative*%
%FSLAX46Y46*%
G04 Gerber Fmt 4.6, Leading zero omitted, Abs format (unit mm)*
G04 Created by KiCad (PCBNEW 10.0.3) date 2026-06-11 17:52:50*
%MOMM*%
%LPD*%
G01*
G04 APERTURE LIST*
G04 Aperture macros list*
%AMRoundRect*
0 Rectangle with rounded corners*
0 $1 Rounding radius*
0 $2 $3 $4 $5 $6 $7 $8 $9 X,Y pos of 4 corners*
0 Add a 4 corners polygon primitive as box body*
4,1,4,$2,$3,$4,$5,$6,$7,$8,$9,$2,$3,0*
0 Add four circle primitives for the rounded corners*
1,1,$1+$1,$2,$3*
1,1,$1+$1,$4,$5*
1,1,$1+$1,$6,$7*
1,1,$1+$1,$8,$9*
0 Add four rect primitives between the rounded corners*
20,1,$1+$1,$2,$3,$4,$5,0*
20,1,$1+$1,$4,$5,$6,$7,0*
20,1,$1+$1,$6,$7,$8,$9,0*
20,1,$1+$1,$8,$9,$2,$3,0*%
G04 Aperture macros list end*
%ADD10C,1.712000*%
%ADD11RoundRect,0.102000X-0.754000X0.754000X-0.754000X-0.754000X0.754000X-0.754000X0.754000X0.754000X0*%
%ADD12C,1.600000*%
%ADD13C,1.700000*%
%ADD14R,1.700000X1.700000*%
%ADD15C,1.500000*%
%ADD16R,1.500000X1.500000*%
%ADD17C,3.200000*%
%ADD18RoundRect,0.250000X-0.550000X-0.550000X0.550000X-0.550000X0.550000X0.550000X-0.550000X0.550000X0*%
%ADD19C,1.800000*%
%ADD20R,1.800000X1.800000*%
%ADD21RoundRect,0.250000X-0.550000X0.550000X-0.550000X-0.550000X0.550000X-0.550000X0.550000X0.550000X0*%
%ADD22C,1.905000*%
G04 APERTURE END LIST*
D10*
%TO.C,T2*%
X75112500Y-120948151D03*
X75112500Y-118408151D03*
X75112500Y-123488151D03*
X77652500Y-123488151D03*
X80192500Y-123488151D03*
X82732500Y-123488151D03*
X85272500Y-123488151D03*
X87812500Y-123488151D03*
X90352500Y-123488151D03*
X92892500Y-123488151D03*
X75112500Y-110788151D03*
X77652500Y-110788151D03*
X80192500Y-110788151D03*
X82732500Y-110788151D03*
X85272500Y-110788151D03*
X87812500Y-110788151D03*
X90352500Y-110788151D03*
D11*
X92892500Y-110788151D03*
%TD*%
D12*
%TO.C,R2*%
X111512500Y-112108151D03*
X114052500Y-112108151D03*
%TD*%
D13*
%TO.C,B1*%
X101602500Y-119098151D03*
X101602500Y-116558151D03*
X101602500Y-114018151D03*
D14*
X101602500Y-111478151D03*
%TD*%
D15*
%TO.C,J2*%
X90588672Y-80368237D03*
X88048672Y-79098237D03*
X90588672Y-77828237D03*
X88048672Y-76558237D03*
X90588672Y-75288237D03*
X88048672Y-74018237D03*
X90588672Y-72748237D03*
D16*
X88048672Y-71478237D03*
D17*
X81698672Y-81638237D03*
X81698672Y-70208237D03*
%TD*%
D12*
%TO.C,C2*%
X77652500Y-107888151D03*
X75152500Y-107888151D03*
%TD*%
D15*
%TO.C,J3*%
X90542500Y-137708151D03*
X88002500Y-136438151D03*
X90542500Y-135168151D03*
X88002500Y-133898151D03*
X90542500Y-132628151D03*
X88002500Y-131358151D03*
X90542500Y-130088151D03*
D16*
X88002500Y-128818151D03*
D17*
X81652500Y-138978151D03*
X81652500Y-127548151D03*
%TD*%
D11*
%TO.C,T1*%
X92922500Y-92288151D03*
D10*
X90382500Y-92288151D03*
X87842500Y-92288151D03*
X85302500Y-92288151D03*
X82762500Y-92288151D03*
X80222500Y-92288151D03*
X77682500Y-92288151D03*
X75142500Y-92288151D03*
X92922500Y-104988151D03*
X90382500Y-104988151D03*
X87842500Y-104988151D03*
X85302500Y-104988151D03*
X82762500Y-104988151D03*
X80222500Y-104988151D03*
X77682500Y-104988151D03*
X75142500Y-104988151D03*
X75142500Y-99908151D03*
X75142500Y-102448151D03*
%TD*%
D13*
%TO.C,P1*%
X98052500Y-109028151D03*
X98052500Y-111568151D03*
D14*
X98052500Y-114108151D03*
%TD*%
D12*
%TO.C,C1*%
X100702500Y-127238151D03*
D18*
X95702500Y-127238151D03*
%TD*%
D14*
%TO.C,SW3*%
X108652500Y-112438151D03*
D13*
X106112500Y-112438151D03*
%TD*%
D12*
%TO.C,R4*%
X111502500Y-118208151D03*
X114042500Y-118208151D03*
%TD*%
D13*
%TO.C,S1*%
X98252500Y-92228151D03*
X98252500Y-89688151D03*
X98252500Y-87148151D03*
X98252500Y-84608151D03*
X98252500Y-82068151D03*
X98252500Y-79528151D03*
X98252500Y-76988151D03*
D14*
X98252500Y-74448151D03*
%TD*%
D15*
%TO.C,J1*%
X90588672Y-63986190D03*
X88048672Y-62716190D03*
X90588672Y-61446190D03*
X88048672Y-60176190D03*
X90588672Y-58906190D03*
X88048672Y-57636190D03*
X90588672Y-56366190D03*
D16*
X88048672Y-55096190D03*
D17*
X81698672Y-65256190D03*
X81698672Y-53826190D03*
%TD*%
D19*
%TO.C,D2*%
X120062500Y-117918151D03*
D20*
X117522500Y-117918151D03*
%TD*%
D14*
%TO.C,SW6*%
X108652500Y-123138151D03*
D13*
X106112500Y-123138151D03*
%TD*%
D12*
%TO.C,C4*%
X77652500Y-89438151D03*
X75152500Y-89438151D03*
%TD*%
%TO.C,C6*%
X104102500Y-130338151D03*
X106602500Y-130338151D03*
%TD*%
D19*
%TO.C,D4*%
X126517500Y-114258151D03*
D20*
X123977500Y-114258151D03*
%TD*%
D13*
%TO.C,SW7*%
X98102500Y-105348151D03*
D14*
X98102500Y-102808151D03*
%TD*%
D19*
%TO.C,D1*%
X120062500Y-110448151D03*
D20*
X117522500Y-110448151D03*
%TD*%
D12*
%TO.C,C7*%
X101702500Y-107208151D03*
X101702500Y-104708151D03*
%TD*%
%TO.C,R5*%
X111502500Y-115208151D03*
X114042500Y-115208151D03*
%TD*%
D13*
%TO.C,SW1*%
X106112500Y-105338151D03*
D14*
X108652500Y-105338151D03*
%TD*%
%TO.C,SW5*%
X108647500Y-119553151D03*
D13*
X106107500Y-119553151D03*
%TD*%
D14*
%TO.C,SW2*%
X108652500Y-108888151D03*
D13*
X106112500Y-108888151D03*
%TD*%
D12*
%TO.C,C3*%
X92902500Y-107888151D03*
X90402500Y-107888151D03*
%TD*%
%TO.C,U1*%
X126982500Y-140358151D03*
X124442500Y-140358151D03*
X121902500Y-140358151D03*
X119362500Y-140358151D03*
X116822500Y-140358151D03*
X114282500Y-140358151D03*
X111742500Y-140358151D03*
X109202500Y-140358151D03*
X106662500Y-140358151D03*
X104122500Y-140358151D03*
X101582500Y-140358151D03*
X99042500Y-140358151D03*
X96502500Y-140358151D03*
X93962500Y-140358151D03*
X93962500Y-132738151D03*
X96502500Y-132738151D03*
X99042500Y-132738151D03*
X101582500Y-132738151D03*
X104122500Y-132738151D03*
X106662500Y-132738151D03*
X109202500Y-132738151D03*
X111742500Y-132738151D03*
X114282500Y-132738151D03*
X116822500Y-132738151D03*
X119362500Y-132738151D03*
X121902500Y-132738151D03*
X124442500Y-132738151D03*
D21*
X126982500Y-132738151D03*
%TD*%
D14*
%TO.C,SW4*%
X108652500Y-115988151D03*
D13*
X106112500Y-115988151D03*
%TD*%
D19*
%TO.C,D5*%
X126517500Y-121728151D03*
D20*
X123977500Y-121728151D03*
%TD*%
D12*
%TO.C,R1*%
X111507500Y-109058151D03*
X114047500Y-109058151D03*
%TD*%
%TO.C,R3*%
X111507500Y-106008151D03*
X114047500Y-106008151D03*
%TD*%
%TO.C,C5*%
X92902500Y-89438151D03*
X90402500Y-89438151D03*
%TD*%
D19*
%TO.C,D3*%
X126517500Y-106788151D03*
D20*
X123977500Y-106788151D03*
%TD*%
D22*
%TO.C,MC2*%
X101852500Y-60408151D03*
X101852500Y-62948151D03*
X101852500Y-65488151D03*
X101852500Y-68028151D03*
X101852500Y-70568151D03*
X101852500Y-73108151D03*
X101852500Y-75648151D03*
X101852500Y-78188151D03*
X101852500Y-80728151D03*
X101852500Y-83268151D03*
X101852500Y-85808151D03*
X101852500Y-88348151D03*
X101852500Y-90888151D03*
X101852500Y-93428151D03*
X101852500Y-95968151D03*
X126852500Y-60408151D03*
X126852500Y-62948151D03*
X126852500Y-65488151D03*
X126852500Y-68028151D03*
X126852500Y-70568151D03*
X126852500Y-73108151D03*
X126852500Y-75648151D03*
X126852500Y-78188151D03*
X126852500Y-80728151D03*
X126852500Y-83268151D03*
X126852500Y-85808151D03*
X126852500Y-88348151D03*
X126852500Y-90888151D03*
X126852500Y-93428151D03*
X126852500Y-95968151D03*
%TD*%
M02*
