%TF.GenerationSoftware,KiCad,Pcbnew,10.0.3*%
%TF.CreationDate,2026-05-27T13:41:18+01:00*%
%TF.ProjectId,ASTRA,41535452-412e-46b6-9963-61645f706362,rev?*%
%TF.SameCoordinates,Original*%
%TF.FileFunction,Legend,Top*%
%TF.FilePolarity,Positive*%
%FSLAX46Y46*%
G04 Gerber Fmt 4.6, Leading zero omitted, Abs format (unit mm)*
G04 Created by KiCad (PCBNEW 10.0.3) date 2026-05-27 13:41:18*
%MOMM*%
%LPD*%
G01*
G04 APERTURE LIST*
%ADD10C,0.150000*%
%ADD11C,0.120000*%
G04 APERTURE END LIST*
D10*
X93333333Y-64584819D02*
X93000000Y-64108628D01*
X92761905Y-64584819D02*
X92761905Y-63584819D01*
X92761905Y-63584819D02*
X93142857Y-63584819D01*
X93142857Y-63584819D02*
X93238095Y-63632438D01*
X93238095Y-63632438D02*
X93285714Y-63680057D01*
X93285714Y-63680057D02*
X93333333Y-63775295D01*
X93333333Y-63775295D02*
X93333333Y-63918152D01*
X93333333Y-63918152D02*
X93285714Y-64013390D01*
X93285714Y-64013390D02*
X93238095Y-64061009D01*
X93238095Y-64061009D02*
X93142857Y-64108628D01*
X93142857Y-64108628D02*
X92761905Y-64108628D01*
X94285714Y-64584819D02*
X93714286Y-64584819D01*
X94000000Y-64584819D02*
X94000000Y-63584819D01*
X94000000Y-63584819D02*
X93904762Y-63727676D01*
X93904762Y-63727676D02*
X93809524Y-63822914D01*
X93809524Y-63822914D02*
X93714286Y-63870533D01*
X86531905Y-79494819D02*
X86531905Y-78494819D01*
X86531905Y-78494819D02*
X86770000Y-78494819D01*
X86770000Y-78494819D02*
X86912857Y-78542438D01*
X86912857Y-78542438D02*
X87008095Y-78637676D01*
X87008095Y-78637676D02*
X87055714Y-78732914D01*
X87055714Y-78732914D02*
X87103333Y-78923390D01*
X87103333Y-78923390D02*
X87103333Y-79066247D01*
X87103333Y-79066247D02*
X87055714Y-79256723D01*
X87055714Y-79256723D02*
X87008095Y-79351961D01*
X87008095Y-79351961D02*
X86912857Y-79447200D01*
X86912857Y-79447200D02*
X86770000Y-79494819D01*
X86770000Y-79494819D02*
X86531905Y-79494819D01*
X88055714Y-79494819D02*
X87484286Y-79494819D01*
X87770000Y-79494819D02*
X87770000Y-78494819D01*
X87770000Y-78494819D02*
X87674762Y-78637676D01*
X87674762Y-78637676D02*
X87579524Y-78732914D01*
X87579524Y-78732914D02*
X87484286Y-78780533D01*
X112214285Y-54931009D02*
X112357142Y-54978628D01*
X112357142Y-54978628D02*
X112404761Y-55026247D01*
X112404761Y-55026247D02*
X112452380Y-55121485D01*
X112452380Y-55121485D02*
X112452380Y-55264342D01*
X112452380Y-55264342D02*
X112404761Y-55359580D01*
X112404761Y-55359580D02*
X112357142Y-55407200D01*
X112357142Y-55407200D02*
X112261904Y-55454819D01*
X112261904Y-55454819D02*
X111880952Y-55454819D01*
X111880952Y-55454819D02*
X111880952Y-54454819D01*
X111880952Y-54454819D02*
X112214285Y-54454819D01*
X112214285Y-54454819D02*
X112309523Y-54502438D01*
X112309523Y-54502438D02*
X112357142Y-54550057D01*
X112357142Y-54550057D02*
X112404761Y-54645295D01*
X112404761Y-54645295D02*
X112404761Y-54740533D01*
X112404761Y-54740533D02*
X112357142Y-54835771D01*
X112357142Y-54835771D02*
X112309523Y-54883390D01*
X112309523Y-54883390D02*
X112214285Y-54931009D01*
X112214285Y-54931009D02*
X111880952Y-54931009D01*
X112738095Y-54454819D02*
X113309523Y-54454819D01*
X113023809Y-55454819D02*
X113023809Y-54454819D01*
X114166666Y-55454819D02*
X113595238Y-55454819D01*
X113880952Y-55454819D02*
X113880952Y-54454819D01*
X113880952Y-54454819D02*
X113785714Y-54597676D01*
X113785714Y-54597676D02*
X113690476Y-54692914D01*
X113690476Y-54692914D02*
X113595238Y-54740533D01*
%TO.C,R1*%
D11*
X89460000Y-66500000D02*
X90230000Y-66500000D01*
X97540000Y-66500000D02*
X96770000Y-66500000D01*
X90230000Y-65130000D02*
X96770000Y-65130000D01*
X96770000Y-67870000D01*
X90230000Y-67870000D01*
X90230000Y-65130000D01*
%TO.C,D1*%
X84710000Y-81455000D02*
X84710000Y-84545000D01*
X84710000Y-81455170D02*
G75*
G02*
X90260000Y-83000000I2560000J-1544830D01*
G01*
X90260000Y-83000000D02*
G75*
G02*
X84710000Y-84544830I-2990000J0D01*
G01*
X89770000Y-83000000D02*
G75*
G02*
X84770000Y-83000000I-2500000J0D01*
G01*
X84770000Y-83000000D02*
G75*
G02*
X89770000Y-83000000I2500000J0D01*
G01*
%TO.C,BT1*%
X102220000Y-61040000D02*
X102220000Y-63500000D01*
X102220000Y-69500000D02*
X102220000Y-70130000D01*
X102220000Y-70130000D02*
X103660000Y-74080000D01*
X104300000Y-58960000D02*
X102220000Y-61040000D01*
X107800000Y-58960000D02*
X104300000Y-58960000D01*
X121700000Y-58960000D02*
X118200000Y-58960000D01*
X121700000Y-58960000D02*
X123780000Y-61040000D01*
X123780000Y-61040000D02*
X123780000Y-63500000D01*
X123780000Y-69500000D02*
X123780000Y-70130000D01*
X123780000Y-70130000D02*
X122340000Y-74080000D01*
X106996646Y-75066530D02*
G75*
G02*
X103660000Y-74080000I-1306646J1716531D01*
G01*
X122325243Y-74088169D02*
G75*
G02*
X119000000Y-75050000I-2015243J738169D01*
G01*
%TD*%
M02*
